<?xml version="1.0" encoding="utf-8" standalone="no"?>
<!DOCTYPE svg PUBLIC "-//W3C//DTD SVG 1.1//EN"
  "http://www.w3.org/Graphics/SVG/1.1/DTD/svg11.dtd">
<svg height="144pt" version="1.1" viewBox="0 0 468 144" width="468pt" xmlns="http://www.w3.org/2000/svg" xmlns:xlink="http://www.w3.org/1999/xlink">
 <metadata>
  <rdf:RDF xmlns:cc="http://creativecommons.org/ns#" xmlns:dc="http://purl.org/dc/elements/1.1/" xmlns:rdf="http://www.w3.org/1999/02/22-rdf-syntax-ns#">
   <cc:Work>
    <dc:type rdf:resource="http://purl.org/dc/dcmitype/StillImage"/>
    <dc:date>2021-06-30T18:42:26.635322</dc:date>
    <dc:format>image/svg+xml</dc:format>
    <dc:creator>
     <cc:Agent>
      <dc:title>Matplotlib v3.4.2, https://matplotlib.org/</dc:title>
     </cc:Agent>
    </dc:creator>
   </cc:Work>
  </rdf:RDF>
 </metadata>
 <defs>
  <style type="text/css">*{stroke-linecap:butt;stroke-linejoin:round;}</style>
 </defs>
 <g id="figure_1">
  <g id="patch_1">
   <path d="M 0 144 
L 468 144 
L 468 0 
L 0 0 
z
" style="fill:#ffffff;"/>
  </g>
  <g id="axes_1">
   <g id="patch_2">
    <path d="M 58.5 128.16 
L 421.2 128.16 
L 421.2 17.28 
L 58.5 17.28 
z
" style="fill:#ffffff;"/>
   </g>
   <g id="matplotlib.axis_1">
    <g id="xtick_1">
     <g id="line2d_1">
      <defs>
       <path d="M 0 0 
L 0 3.5 
" id="mb826467196" style="stroke:#000000;stroke-width:0.8;"/>
      </defs>
      <g>
       <use style="stroke:#000000;stroke-width:0.8;" x="59.729492" xlink:href="#mb826467196" y="128.16"/>
      </g>
     </g>
     <g id="line2d_2">
      <defs>
       <path d="M 0 0 
L 0 -3.5 
" id="m1f99edcff5" style="stroke:#000000;stroke-width:0.8;"/>
      </defs>
      <g>
       <use style="stroke:#000000;stroke-width:0.8;" x="59.729492" xlink:href="#m1f99edcff5" y="17.28"/>
      </g>
     </g>
     <g id="text_1">
      <!-- 0 -->
      <g transform="translate(56.548242 142.758438)scale(0.1 -0.1)">
       <defs>
        <path d="M 2034 4250 
Q 1547 4250 1301 3770 
Q 1056 3291 1056 2328 
Q 1056 1369 1301 889 
Q 1547 409 2034 409 
Q 2525 409 2770 889 
Q 3016 1369 3016 2328 
Q 3016 3291 2770 3770 
Q 2525 4250 2034 4250 
z
M 2034 4750 
Q 2819 4750 3233 4129 
Q 3647 3509 3647 2328 
Q 3647 1150 3233 529 
Q 2819 -91 2034 -91 
Q 1250 -91 836 529 
Q 422 1150 422 2328 
Q 422 3509 836 4129 
Q 1250 4750 2034 4750 
z
" id="DejaVuSans-30" transform="scale(0.015625)"/>
       </defs>
       <use xlink:href="#DejaVuSans-30"/>
      </g>
     </g>
    </g>
    <g id="xtick_2">
     <g id="line2d_3">
      <g>
       <use style="stroke:#000000;stroke-width:0.8;" x="121.204068" xlink:href="#mb826467196" y="128.16"/>
      </g>
     </g>
     <g id="line2d_4">
      <g>
       <use style="stroke:#000000;stroke-width:0.8;" x="121.204068" xlink:href="#m1f99edcff5" y="17.28"/>
      </g>
     </g>
     <g id="text_2">
      <!-- 50 -->
      <g transform="translate(114.841568 142.758438)scale(0.1 -0.1)">
       <defs>
        <path d="M 691 4666 
L 3169 4666 
L 3169 4134 
L 1269 4134 
L 1269 2991 
Q 1406 3038 1543 3061 
Q 1681 3084 1819 3084 
Q 2600 3084 3056 2656 
Q 3513 2228 3513 1497 
Q 3513 744 3044 326 
Q 2575 -91 1722 -91 
Q 1428 -91 1123 -41 
Q 819 9 494 109 
L 494 744 
Q 775 591 1075 516 
Q 1375 441 1709 441 
Q 2250 441 2565 725 
Q 2881 1009 2881 1497 
Q 2881 1984 2565 2268 
Q 2250 2553 1709 2553 
Q 1456 2553 1204 2497 
Q 953 2441 691 2322 
L 691 4666 
z
" id="DejaVuSans-35" transform="scale(0.015625)"/>
       </defs>
       <use xlink:href="#DejaVuSans-35"/>
       <use x="63.623047" xlink:href="#DejaVuSans-30"/>
      </g>
     </g>
    </g>
    <g id="xtick_3">
     <g id="line2d_5">
      <g>
       <use style="stroke:#000000;stroke-width:0.8;" x="182.678644" xlink:href="#mb826467196" y="128.16"/>
      </g>
     </g>
     <g id="line2d_6">
      <g>
       <use style="stroke:#000000;stroke-width:0.8;" x="182.678644" xlink:href="#m1f99edcff5" y="17.28"/>
      </g>
     </g>
     <g id="text_3">
      <!-- 100 -->
      <g transform="translate(173.134894 142.758438)scale(0.1 -0.1)">
       <defs>
        <path d="M 794 531 
L 1825 531 
L 1825 4091 
L 703 3866 
L 703 4441 
L 1819 4666 
L 2450 4666 
L 2450 531 
L 3481 531 
L 3481 0 
L 794 0 
L 794 531 
z
" id="DejaVuSans-31" transform="scale(0.015625)"/>
       </defs>
       <use xlink:href="#DejaVuSans-31"/>
       <use x="63.623047" xlink:href="#DejaVuSans-30"/>
       <use x="127.246094" xlink:href="#DejaVuSans-30"/>
      </g>
     </g>
    </g>
    <g id="xtick_4">
     <g id="line2d_7">
      <g>
       <use style="stroke:#000000;stroke-width:0.8;" x="244.15322" xlink:href="#mb826467196" y="128.16"/>
      </g>
     </g>
     <g id="line2d_8">
      <g>
       <use style="stroke:#000000;stroke-width:0.8;" x="244.15322" xlink:href="#m1f99edcff5" y="17.28"/>
      </g>
     </g>
     <g id="text_4">
      <!-- 150 -->
      <g transform="translate(234.60947 142.758438)scale(0.1 -0.1)">
       <use xlink:href="#DejaVuSans-31"/>
       <use x="63.623047" xlink:href="#DejaVuSans-35"/>
       <use x="127.246094" xlink:href="#DejaVuSans-30"/>
      </g>
     </g>
    </g>
    <g id="xtick_5">
     <g id="line2d_9">
      <g>
       <use style="stroke:#000000;stroke-width:0.8;" x="305.627797" xlink:href="#mb826467196" y="128.16"/>
      </g>
     </g>
     <g id="line2d_10">
      <g>
       <use style="stroke:#000000;stroke-width:0.8;" x="305.627797" xlink:href="#m1f99edcff5" y="17.28"/>
      </g>
     </g>
     <g id="text_5">
      <!-- 200 -->
      <g transform="translate(296.084047 142.758438)scale(0.1 -0.1)">
       <defs>
        <path d="M 1228 531 
L 3431 531 
L 3431 0 
L 469 0 
L 469 531 
Q 828 903 1448 1529 
Q 2069 2156 2228 2338 
Q 2531 2678 2651 2914 
Q 2772 3150 2772 3378 
Q 2772 3750 2511 3984 
Q 2250 4219 1831 4219 
Q 1534 4219 1204 4116 
Q 875 4013 500 3803 
L 500 4441 
Q 881 4594 1212 4672 
Q 1544 4750 1819 4750 
Q 2544 4750 2975 4387 
Q 3406 4025 3406 3419 
Q 3406 3131 3298 2873 
Q 3191 2616 2906 2266 
Q 2828 2175 2409 1742 
Q 1991 1309 1228 531 
z
" id="DejaVuSans-32" transform="scale(0.015625)"/>
       </defs>
       <use xlink:href="#DejaVuSans-32"/>
       <use x="63.623047" xlink:href="#DejaVuSans-30"/>
       <use x="127.246094" xlink:href="#DejaVuSans-30"/>
      </g>
     </g>
    </g>
    <g id="xtick_6">
     <g id="line2d_11">
      <g>
       <use style="stroke:#000000;stroke-width:0.8;" x="367.102373" xlink:href="#mb826467196" y="128.16"/>
      </g>
     </g>
     <g id="line2d_12">
      <g>
       <use style="stroke:#000000;stroke-width:0.8;" x="367.102373" xlink:href="#m1f99edcff5" y="17.28"/>
      </g>
     </g>
     <g id="text_6">
      <!-- 250 -->
      <g transform="translate(357.558623 142.758438)scale(0.1 -0.1)">
       <use xlink:href="#DejaVuSans-32"/>
       <use x="63.623047" xlink:href="#DejaVuSans-35"/>
       <use x="127.246094" xlink:href="#DejaVuSans-30"/>
      </g>
     </g>
    </g>
    <g id="text_7">
     <!-- parsimony tree -->
     <g transform="translate(201.859375 156.436563)scale(0.1 -0.1)">
      <defs>
       <path d="M 1159 525 
L 1159 -1331 
L 581 -1331 
L 581 3500 
L 1159 3500 
L 1159 2969 
Q 1341 3281 1617 3432 
Q 1894 3584 2278 3584 
Q 2916 3584 3314 3078 
Q 3713 2572 3713 1747 
Q 3713 922 3314 415 
Q 2916 -91 2278 -91 
Q 1894 -91 1617 61 
Q 1341 213 1159 525 
z
M 3116 1747 
Q 3116 2381 2855 2742 
Q 2594 3103 2138 3103 
Q 1681 3103 1420 2742 
Q 1159 2381 1159 1747 
Q 1159 1113 1420 752 
Q 1681 391 2138 391 
Q 2594 391 2855 752 
Q 3116 1113 3116 1747 
z
" id="DejaVuSans-70" transform="scale(0.015625)"/>
       <path d="M 2194 1759 
Q 1497 1759 1228 1600 
Q 959 1441 959 1056 
Q 959 750 1161 570 
Q 1363 391 1709 391 
Q 2188 391 2477 730 
Q 2766 1069 2766 1631 
L 2766 1759 
L 2194 1759 
z
M 3341 1997 
L 3341 0 
L 2766 0 
L 2766 531 
Q 2569 213 2275 61 
Q 1981 -91 1556 -91 
Q 1019 -91 701 211 
Q 384 513 384 1019 
Q 384 1609 779 1909 
Q 1175 2209 1959 2209 
L 2766 2209 
L 2766 2266 
Q 2766 2663 2505 2880 
Q 2244 3097 1772 3097 
Q 1472 3097 1187 3025 
Q 903 2953 641 2809 
L 641 3341 
Q 956 3463 1253 3523 
Q 1550 3584 1831 3584 
Q 2591 3584 2966 3190 
Q 3341 2797 3341 1997 
z
" id="DejaVuSans-61" transform="scale(0.015625)"/>
       <path d="M 2631 2963 
Q 2534 3019 2420 3045 
Q 2306 3072 2169 3072 
Q 1681 3072 1420 2755 
Q 1159 2438 1159 1844 
L 1159 0 
L 581 0 
L 581 3500 
L 1159 3500 
L 1159 2956 
Q 1341 3275 1631 3429 
Q 1922 3584 2338 3584 
Q 2397 3584 2469 3576 
Q 2541 3569 2628 3553 
L 2631 2963 
z
" id="DejaVuSans-72" transform="scale(0.015625)"/>
       <path d="M 2834 3397 
L 2834 2853 
Q 2591 2978 2328 3040 
Q 2066 3103 1784 3103 
Q 1356 3103 1142 2972 
Q 928 2841 928 2578 
Q 928 2378 1081 2264 
Q 1234 2150 1697 2047 
L 1894 2003 
Q 2506 1872 2764 1633 
Q 3022 1394 3022 966 
Q 3022 478 2636 193 
Q 2250 -91 1575 -91 
Q 1294 -91 989 -36 
Q 684 19 347 128 
L 347 722 
Q 666 556 975 473 
Q 1284 391 1588 391 
Q 1994 391 2212 530 
Q 2431 669 2431 922 
Q 2431 1156 2273 1281 
Q 2116 1406 1581 1522 
L 1381 1569 
Q 847 1681 609 1914 
Q 372 2147 372 2553 
Q 372 3047 722 3315 
Q 1072 3584 1716 3584 
Q 2034 3584 2315 3537 
Q 2597 3491 2834 3397 
z
" id="DejaVuSans-73" transform="scale(0.015625)"/>
       <path d="M 603 3500 
L 1178 3500 
L 1178 0 
L 603 0 
L 603 3500 
z
M 603 4863 
L 1178 4863 
L 1178 4134 
L 603 4134 
L 603 4863 
z
" id="DejaVuSans-69" transform="scale(0.015625)"/>
       <path d="M 3328 2828 
Q 3544 3216 3844 3400 
Q 4144 3584 4550 3584 
Q 5097 3584 5394 3201 
Q 5691 2819 5691 2113 
L 5691 0 
L 5113 0 
L 5113 2094 
Q 5113 2597 4934 2840 
Q 4756 3084 4391 3084 
Q 3944 3084 3684 2787 
Q 3425 2491 3425 1978 
L 3425 0 
L 2847 0 
L 2847 2094 
Q 2847 2600 2669 2842 
Q 2491 3084 2119 3084 
Q 1678 3084 1418 2786 
Q 1159 2488 1159 1978 
L 1159 0 
L 581 0 
L 581 3500 
L 1159 3500 
L 1159 2956 
Q 1356 3278 1631 3431 
Q 1906 3584 2284 3584 
Q 2666 3584 2933 3390 
Q 3200 3197 3328 2828 
z
" id="DejaVuSans-6d" transform="scale(0.015625)"/>
       <path d="M 1959 3097 
Q 1497 3097 1228 2736 
Q 959 2375 959 1747 
Q 959 1119 1226 758 
Q 1494 397 1959 397 
Q 2419 397 2687 759 
Q 2956 1122 2956 1747 
Q 2956 2369 2687 2733 
Q 2419 3097 1959 3097 
z
M 1959 3584 
Q 2709 3584 3137 3096 
Q 3566 2609 3566 1747 
Q 3566 888 3137 398 
Q 2709 -91 1959 -91 
Q 1206 -91 779 398 
Q 353 888 353 1747 
Q 353 2609 779 3096 
Q 1206 3584 1959 3584 
z
" id="DejaVuSans-6f" transform="scale(0.015625)"/>
       <path d="M 3513 2113 
L 3513 0 
L 2938 0 
L 2938 2094 
Q 2938 2591 2744 2837 
Q 2550 3084 2163 3084 
Q 1697 3084 1428 2787 
Q 1159 2491 1159 1978 
L 1159 0 
L 581 0 
L 581 3500 
L 1159 3500 
L 1159 2956 
Q 1366 3272 1645 3428 
Q 1925 3584 2291 3584 
Q 2894 3584 3203 3211 
Q 3513 2838 3513 2113 
z
" id="DejaVuSans-6e" transform="scale(0.015625)"/>
       <path d="M 2059 -325 
Q 1816 -950 1584 -1140 
Q 1353 -1331 966 -1331 
L 506 -1331 
L 506 -850 
L 844 -850 
Q 1081 -850 1212 -737 
Q 1344 -625 1503 -206 
L 1606 56 
L 191 3500 
L 800 3500 
L 1894 763 
L 2988 3500 
L 3597 3500 
L 2059 -325 
z
" id="DejaVuSans-79" transform="scale(0.015625)"/>
       <path id="DejaVuSans-20" transform="scale(0.015625)"/>
       <path d="M 1172 4494 
L 1172 3500 
L 2356 3500 
L 2356 3053 
L 1172 3053 
L 1172 1153 
Q 1172 725 1289 603 
Q 1406 481 1766 481 
L 2356 481 
L 2356 0 
L 1766 0 
Q 1100 0 847 248 
Q 594 497 594 1153 
L 594 3053 
L 172 3053 
L 172 3500 
L 594 3500 
L 594 4494 
L 1172 4494 
z
" id="DejaVuSans-74" transform="scale(0.015625)"/>
       <path d="M 3597 1894 
L 3597 1613 
L 953 1613 
Q 991 1019 1311 708 
Q 1631 397 2203 397 
Q 2534 397 2845 478 
Q 3156 559 3463 722 
L 3463 178 
Q 3153 47 2828 -22 
Q 2503 -91 2169 -91 
Q 1331 -91 842 396 
Q 353 884 353 1716 
Q 353 2575 817 3079 
Q 1281 3584 2069 3584 
Q 2775 3584 3186 3129 
Q 3597 2675 3597 1894 
z
M 3022 2063 
Q 3016 2534 2758 2815 
Q 2500 3097 2075 3097 
Q 1594 3097 1305 2825 
Q 1016 2553 972 2059 
L 3022 2063 
z
" id="DejaVuSans-65" transform="scale(0.015625)"/>
      </defs>
      <use xlink:href="#DejaVuSans-70"/>
      <use x="63.476562" xlink:href="#DejaVuSans-61"/>
      <use x="124.755859" xlink:href="#DejaVuSans-72"/>
      <use x="165.869141" xlink:href="#DejaVuSans-73"/>
      <use x="217.96875" xlink:href="#DejaVuSans-69"/>
      <use x="245.751953" xlink:href="#DejaVuSans-6d"/>
      <use x="343.164062" xlink:href="#DejaVuSans-6f"/>
      <use x="404.345703" xlink:href="#DejaVuSans-6e"/>
      <use x="467.724609" xlink:href="#DejaVuSans-79"/>
      <use x="526.904297" xlink:href="#DejaVuSans-20"/>
      <use x="558.691406" xlink:href="#DejaVuSans-74"/>
      <use x="597.900391" xlink:href="#DejaVuSans-72"/>
      <use x="636.763672" xlink:href="#DejaVuSans-65"/>
      <use x="698.287109" xlink:href="#DejaVuSans-65"/>
     </g>
    </g>
   </g>
   <g id="matplotlib.axis_2">
    <g id="ytick_1">
     <g id="line2d_13">
      <defs>
       <path d="M 0 0 
L -3.5 0 
" id="m27fba22228" style="stroke:#000000;stroke-width:0.8;"/>
      </defs>
      <g>
       <use style="stroke:#000000;stroke-width:0.8;" x="58.5" xlink:href="#m27fba22228" y="99.052312"/>
      </g>
     </g>
     <g id="text_8">
      <!-- $\mathdefault{10^{-38}}$ -->
      <g transform="translate(23.6 102.851531)scale(0.1 -0.1)">
       <defs>
        <path d="M 678 2272 
L 4684 2272 
L 4684 1741 
L 678 1741 
L 678 2272 
z
" id="DejaVuSans-2212" transform="scale(0.015625)"/>
        <path d="M 2597 2516 
Q 3050 2419 3304 2112 
Q 3559 1806 3559 1356 
Q 3559 666 3084 287 
Q 2609 -91 1734 -91 
Q 1441 -91 1130 -33 
Q 819 25 488 141 
L 488 750 
Q 750 597 1062 519 
Q 1375 441 1716 441 
Q 2309 441 2620 675 
Q 2931 909 2931 1356 
Q 2931 1769 2642 2001 
Q 2353 2234 1838 2234 
L 1294 2234 
L 1294 2753 
L 1863 2753 
Q 2328 2753 2575 2939 
Q 2822 3125 2822 3475 
Q 2822 3834 2567 4026 
Q 2313 4219 1838 4219 
Q 1578 4219 1281 4162 
Q 984 4106 628 3988 
L 628 4550 
Q 988 4650 1302 4700 
Q 1616 4750 1894 4750 
Q 2613 4750 3031 4423 
Q 3450 4097 3450 3541 
Q 3450 3153 3228 2886 
Q 3006 2619 2597 2516 
z
" id="DejaVuSans-33" transform="scale(0.015625)"/>
        <path d="M 2034 2216 
Q 1584 2216 1326 1975 
Q 1069 1734 1069 1313 
Q 1069 891 1326 650 
Q 1584 409 2034 409 
Q 2484 409 2743 651 
Q 3003 894 3003 1313 
Q 3003 1734 2745 1975 
Q 2488 2216 2034 2216 
z
M 1403 2484 
Q 997 2584 770 2862 
Q 544 3141 544 3541 
Q 544 4100 942 4425 
Q 1341 4750 2034 4750 
Q 2731 4750 3128 4425 
Q 3525 4100 3525 3541 
Q 3525 3141 3298 2862 
Q 3072 2584 2669 2484 
Q 3125 2378 3379 2068 
Q 3634 1759 3634 1313 
Q 3634 634 3220 271 
Q 2806 -91 2034 -91 
Q 1263 -91 848 271 
Q 434 634 434 1313 
Q 434 1759 690 2068 
Q 947 2378 1403 2484 
z
M 1172 3481 
Q 1172 3119 1398 2916 
Q 1625 2713 2034 2713 
Q 2441 2713 2670 2916 
Q 2900 3119 2900 3481 
Q 2900 3844 2670 4047 
Q 2441 4250 2034 4250 
Q 1625 4250 1398 4047 
Q 1172 3844 1172 3481 
z
" id="DejaVuSans-38" transform="scale(0.015625)"/>
       </defs>
       <use transform="translate(0 0.765625)" xlink:href="#DejaVuSans-31"/>
       <use transform="translate(63.623047 0.765625)" xlink:href="#DejaVuSans-30"/>
       <use transform="translate(128.203125 39.046875)scale(0.7)" xlink:href="#DejaVuSans-2212"/>
       <use transform="translate(186.855469 39.046875)scale(0.7)" xlink:href="#DejaVuSans-33"/>
       <use transform="translate(231.391602 39.046875)scale(0.7)" xlink:href="#DejaVuSans-38"/>
      </g>
     </g>
    </g>
    <g id="ytick_2">
     <g id="line2d_14">
      <g>
       <use style="stroke:#000000;stroke-width:0.8;" x="58.5" xlink:href="#m27fba22228" y="59.781904"/>
      </g>
     </g>
     <g id="text_9">
      <!-- $\mathdefault{10^{-36}}$ -->
      <g transform="translate(23.6 63.581122)scale(0.1 -0.1)">
       <defs>
        <path d="M 2113 2584 
Q 1688 2584 1439 2293 
Q 1191 2003 1191 1497 
Q 1191 994 1439 701 
Q 1688 409 2113 409 
Q 2538 409 2786 701 
Q 3034 994 3034 1497 
Q 3034 2003 2786 2293 
Q 2538 2584 2113 2584 
z
M 3366 4563 
L 3366 3988 
Q 3128 4100 2886 4159 
Q 2644 4219 2406 4219 
Q 1781 4219 1451 3797 
Q 1122 3375 1075 2522 
Q 1259 2794 1537 2939 
Q 1816 3084 2150 3084 
Q 2853 3084 3261 2657 
Q 3669 2231 3669 1497 
Q 3669 778 3244 343 
Q 2819 -91 2113 -91 
Q 1303 -91 875 529 
Q 447 1150 447 2328 
Q 447 3434 972 4092 
Q 1497 4750 2381 4750 
Q 2619 4750 2861 4703 
Q 3103 4656 3366 4563 
z
" id="DejaVuSans-36" transform="scale(0.015625)"/>
       </defs>
       <use transform="translate(0 0.765625)" xlink:href="#DejaVuSans-31"/>
       <use transform="translate(63.623047 0.765625)" xlink:href="#DejaVuSans-30"/>
       <use transform="translate(128.203125 39.046875)scale(0.7)" xlink:href="#DejaVuSans-2212"/>
       <use transform="translate(186.855469 39.046875)scale(0.7)" xlink:href="#DejaVuSans-33"/>
       <use transform="translate(231.391602 39.046875)scale(0.7)" xlink:href="#DejaVuSans-36"/>
      </g>
     </g>
    </g>
    <g id="ytick_3">
     <g id="line2d_15">
      <g>
       <use style="stroke:#000000;stroke-width:0.8;" x="58.5" xlink:href="#m27fba22228" y="20.511495"/>
      </g>
     </g>
     <g id="text_10">
      <!-- $\mathdefault{10^{-34}}$ -->
      <g transform="translate(23.6 24.310713)scale(0.1 -0.1)">
       <defs>
        <path d="M 2419 4116 
L 825 1625 
L 2419 1625 
L 2419 4116 
z
M 2253 4666 
L 3047 4666 
L 3047 1625 
L 3713 1625 
L 3713 1100 
L 3047 1100 
L 3047 0 
L 2419 0 
L 2419 1100 
L 313 1100 
L 313 1709 
L 2253 4666 
z
" id="DejaVuSans-34" transform="scale(0.015625)"/>
       </defs>
       <use transform="translate(0 0.765625)" xlink:href="#DejaVuSans-31"/>
       <use transform="translate(63.623047 0.765625)" xlink:href="#DejaVuSans-30"/>
       <use transform="translate(128.203125 39.046875)scale(0.7)" xlink:href="#DejaVuSans-2212"/>
       <use transform="translate(186.855469 39.046875)scale(0.7)" xlink:href="#DejaVuSans-33"/>
       <use transform="translate(231.391602 39.046875)scale(0.7)" xlink:href="#DejaVuSans-34"/>
      </g>
     </g>
    </g>
    <g id="text_11">
     <!-- gctree likelihood -->
     <g transform="translate(17.520312 114.097344)rotate(-90)scale(0.1 -0.1)">
      <defs>
       <path d="M 2906 1791 
Q 2906 2416 2648 2759 
Q 2391 3103 1925 3103 
Q 1463 3103 1205 2759 
Q 947 2416 947 1791 
Q 947 1169 1205 825 
Q 1463 481 1925 481 
Q 2391 481 2648 825 
Q 2906 1169 2906 1791 
z
M 3481 434 
Q 3481 -459 3084 -895 
Q 2688 -1331 1869 -1331 
Q 1566 -1331 1297 -1286 
Q 1028 -1241 775 -1147 
L 775 -588 
Q 1028 -725 1275 -790 
Q 1522 -856 1778 -856 
Q 2344 -856 2625 -561 
Q 2906 -266 2906 331 
L 2906 616 
Q 2728 306 2450 153 
Q 2172 0 1784 0 
Q 1141 0 747 490 
Q 353 981 353 1791 
Q 353 2603 747 3093 
Q 1141 3584 1784 3584 
Q 2172 3584 2450 3431 
Q 2728 3278 2906 2969 
L 2906 3500 
L 3481 3500 
L 3481 434 
z
" id="DejaVuSans-67" transform="scale(0.015625)"/>
       <path d="M 3122 3366 
L 3122 2828 
Q 2878 2963 2633 3030 
Q 2388 3097 2138 3097 
Q 1578 3097 1268 2742 
Q 959 2388 959 1747 
Q 959 1106 1268 751 
Q 1578 397 2138 397 
Q 2388 397 2633 464 
Q 2878 531 3122 666 
L 3122 134 
Q 2881 22 2623 -34 
Q 2366 -91 2075 -91 
Q 1284 -91 818 406 
Q 353 903 353 1747 
Q 353 2603 823 3093 
Q 1294 3584 2113 3584 
Q 2378 3584 2631 3529 
Q 2884 3475 3122 3366 
z
" id="DejaVuSans-63" transform="scale(0.015625)"/>
       <path d="M 603 4863 
L 1178 4863 
L 1178 0 
L 603 0 
L 603 4863 
z
" id="DejaVuSans-6c" transform="scale(0.015625)"/>
       <path d="M 581 4863 
L 1159 4863 
L 1159 1991 
L 2875 3500 
L 3609 3500 
L 1753 1863 
L 3688 0 
L 2938 0 
L 1159 1709 
L 1159 0 
L 581 0 
L 581 4863 
z
" id="DejaVuSans-6b" transform="scale(0.015625)"/>
       <path d="M 3513 2113 
L 3513 0 
L 2938 0 
L 2938 2094 
Q 2938 2591 2744 2837 
Q 2550 3084 2163 3084 
Q 1697 3084 1428 2787 
Q 1159 2491 1159 1978 
L 1159 0 
L 581 0 
L 581 4863 
L 1159 4863 
L 1159 2956 
Q 1366 3272 1645 3428 
Q 1925 3584 2291 3584 
Q 2894 3584 3203 3211 
Q 3513 2838 3513 2113 
z
" id="DejaVuSans-68" transform="scale(0.015625)"/>
       <path d="M 2906 2969 
L 2906 4863 
L 3481 4863 
L 3481 0 
L 2906 0 
L 2906 525 
Q 2725 213 2448 61 
Q 2172 -91 1784 -91 
Q 1150 -91 751 415 
Q 353 922 353 1747 
Q 353 2572 751 3078 
Q 1150 3584 1784 3584 
Q 2172 3584 2448 3432 
Q 2725 3281 2906 2969 
z
M 947 1747 
Q 947 1113 1208 752 
Q 1469 391 1925 391 
Q 2381 391 2643 752 
Q 2906 1113 2906 1747 
Q 2906 2381 2643 2742 
Q 2381 3103 1925 3103 
Q 1469 3103 1208 2742 
Q 947 2381 947 1747 
z
" id="DejaVuSans-64" transform="scale(0.015625)"/>
      </defs>
      <use xlink:href="#DejaVuSans-67"/>
      <use x="63.476562" xlink:href="#DejaVuSans-63"/>
      <use x="118.457031" xlink:href="#DejaVuSans-74"/>
      <use x="157.666016" xlink:href="#DejaVuSans-72"/>
      <use x="196.529297" xlink:href="#DejaVuSans-65"/>
      <use x="258.052734" xlink:href="#DejaVuSans-65"/>
      <use x="319.576172" xlink:href="#DejaVuSans-20"/>
      <use x="351.363281" xlink:href="#DejaVuSans-6c"/>
      <use x="379.146484" xlink:href="#DejaVuSans-69"/>
      <use x="406.929688" xlink:href="#DejaVuSans-6b"/>
      <use x="461.214844" xlink:href="#DejaVuSans-65"/>
      <use x="522.738281" xlink:href="#DejaVuSans-6c"/>
      <use x="550.521484" xlink:href="#DejaVuSans-69"/>
      <use x="578.304688" xlink:href="#DejaVuSans-68"/>
      <use x="641.683594" xlink:href="#DejaVuSans-6f"/>
      <use x="702.865234" xlink:href="#DejaVuSans-6f"/>
      <use x="764.046875" xlink:href="#DejaVuSans-64"/>
     </g>
    </g>
   </g>
   <g id="line2d_16">
    <defs>
     <path d="M 0 2 
C 0.530406 2 1.03916 1.789267 1.414214 1.414214 
C 1.789267 1.03916 2 0.530406 2 0 
C 2 -0.530406 1.789267 -1.03916 1.414214 -1.414214 
C 1.03916 -1.789267 0.530406 -2 0 -2 
C -0.530406 -2 -1.03916 -1.789267 -1.414214 -1.414214 
C -1.789267 -1.03916 -2 -0.530406 -2 0 
C -2 0.530406 -1.789267 1.03916 -1.414214 1.414214 
C -1.03916 1.789267 -0.530406 2 0 2 
z
" id="m8df2acd1b5" style="stroke:#000000;"/>
    </defs>
    <g>
     <use style="stroke:#000000;" x="59.729492" xlink:href="#m8df2acd1b5" y="18.092754"/>
     <use style="stroke:#000000;" x="60.958983" xlink:href="#m8df2acd1b5" y="26.719141"/>
     <use style="stroke:#000000;" x="62.188475" xlink:href="#m8df2acd1b5" y="26.719141"/>
     <use style="stroke:#000000;" x="63.417966" xlink:href="#m8df2acd1b5" y="26.719141"/>
     <use style="stroke:#000000;" x="64.647458" xlink:href="#m8df2acd1b5" y="27.461127"/>
     <use style="stroke:#000000;" x="65.876949" xlink:href="#m8df2acd1b5" y="27.461127"/>
     <use style="stroke:#000000;" x="67.106441" xlink:href="#m8df2acd1b5" y="28.39658"/>
     <use style="stroke:#000000;" x="68.335932" xlink:href="#m8df2acd1b5" y="33.56538"/>
     <use style="stroke:#000000;" x="69.565424" xlink:href="#m8df2acd1b5" y="33.56538"/>
     <use style="stroke:#000000;" x="70.794915" xlink:href="#m8df2acd1b5" y="33.56538"/>
     <use style="stroke:#000000;" x="72.024407" xlink:href="#m8df2acd1b5" y="33.56538"/>
     <use style="stroke:#000000;" x="73.253898" xlink:href="#m8df2acd1b5" y="35.862106"/>
     <use style="stroke:#000000;" x="74.48339" xlink:href="#m8df2acd1b5" y="35.862106"/>
     <use style="stroke:#000000;" x="75.712881" xlink:href="#m8df2acd1b5" y="36.087514"/>
     <use style="stroke:#000000;" x="76.942373" xlink:href="#m8df2acd1b5" y="36.087514"/>
     <use style="stroke:#000000;" x="78.171864" xlink:href="#m8df2acd1b5" y="37.022968"/>
     <use style="stroke:#000000;" x="79.401356" xlink:href="#m8df2acd1b5" y="37.022968"/>
     <use style="stroke:#000000;" x="80.630847" xlink:href="#m8df2acd1b5" y="37.022968"/>
     <use style="stroke:#000000;" x="81.860339" xlink:href="#m8df2acd1b5" y="37.764954"/>
     <use style="stroke:#000000;" x="83.089831" xlink:href="#m8df2acd1b5" y="38.107094"/>
     <use style="stroke:#000000;" x="84.319322" xlink:href="#m8df2acd1b5" y="38.107094"/>
     <use style="stroke:#000000;" x="85.548814" xlink:href="#m8df2acd1b5" y="39.042548"/>
     <use style="stroke:#000000;" x="86.778305" xlink:href="#m8df2acd1b5" y="39.042548"/>
     <use style="stroke:#000000;" x="88.007797" xlink:href="#m8df2acd1b5" y="39.042548"/>
     <use style="stroke:#000000;" x="89.237288" xlink:href="#m8df2acd1b5" y="39.042548"/>
     <use style="stroke:#000000;" x="90.46678" xlink:href="#m8df2acd1b5" y="39.042548"/>
     <use style="stroke:#000000;" x="91.696271" xlink:href="#m8df2acd1b5" y="39.042548"/>
     <use style="stroke:#000000;" x="92.925763" xlink:href="#m8df2acd1b5" y="39.042548"/>
     <use style="stroke:#000000;" x="94.155254" xlink:href="#m8df2acd1b5" y="39.042548"/>
     <use style="stroke:#000000;" x="95.384746" xlink:href="#m8df2acd1b5" y="39.042548"/>
     <use style="stroke:#000000;" x="96.614237" xlink:href="#m8df2acd1b5" y="39.042548"/>
     <use style="stroke:#000000;" x="97.843729" xlink:href="#m8df2acd1b5" y="39.042548"/>
     <use style="stroke:#000000;" x="99.07322" xlink:href="#m8df2acd1b5" y="39.042548"/>
     <use style="stroke:#000000;" x="100.302712" xlink:href="#m8df2acd1b5" y="39.042548"/>
     <use style="stroke:#000000;" x="101.532203" xlink:href="#m8df2acd1b5" y="42.933753"/>
     <use style="stroke:#000000;" x="102.761695" xlink:href="#m8df2acd1b5" y="42.933753"/>
     <use style="stroke:#000000;" x="103.991186" xlink:href="#m8df2acd1b5" y="44.023847"/>
     <use style="stroke:#000000;" x="105.220678" xlink:href="#m8df2acd1b5" y="44.023847"/>
     <use style="stroke:#000000;" x="106.450169" xlink:href="#m8df2acd1b5" y="44.023847"/>
     <use style="stroke:#000000;" x="107.679661" xlink:href="#m8df2acd1b5" y="44.488493"/>
     <use style="stroke:#000000;" x="108.909153" xlink:href="#m8df2acd1b5" y="44.488493"/>
     <use style="stroke:#000000;" x="110.138644" xlink:href="#m8df2acd1b5" y="46.391341"/>
     <use style="stroke:#000000;" x="111.368136" xlink:href="#m8df2acd1b5" y="46.733482"/>
     <use style="stroke:#000000;" x="112.597627" xlink:href="#m8df2acd1b5" y="46.733482"/>
     <use style="stroke:#000000;" x="113.827119" xlink:href="#m8df2acd1b5" y="46.733482"/>
     <use style="stroke:#000000;" x="115.05661" xlink:href="#m8df2acd1b5" y="46.733482"/>
     <use style="stroke:#000000;" x="116.286102" xlink:href="#m8df2acd1b5" y="47.668935"/>
     <use style="stroke:#000000;" x="117.515593" xlink:href="#m8df2acd1b5" y="47.668935"/>
     <use style="stroke:#000000;" x="118.745085" xlink:href="#m8df2acd1b5" y="47.668935"/>
     <use style="stroke:#000000;" x="119.974576" xlink:href="#m8df2acd1b5" y="47.668935"/>
     <use style="stroke:#000000;" x="121.204068" xlink:href="#m8df2acd1b5" y="47.668935"/>
     <use style="stroke:#000000;" x="122.433559" xlink:href="#m8df2acd1b5" y="47.668935"/>
     <use style="stroke:#000000;" x="123.663051" xlink:href="#m8df2acd1b5" y="47.668935"/>
     <use style="stroke:#000000;" x="124.892542" xlink:href="#m8df2acd1b5" y="47.668935"/>
     <use style="stroke:#000000;" x="126.122034" xlink:href="#m8df2acd1b5" y="48.410921"/>
     <use style="stroke:#000000;" x="127.351525" xlink:href="#m8df2acd1b5" y="48.410921"/>
     <use style="stroke:#000000;" x="128.581017" xlink:href="#m8df2acd1b5" y="48.410921"/>
     <use style="stroke:#000000;" x="129.810508" xlink:href="#m8df2acd1b5" y="48.410921"/>
     <use style="stroke:#000000;" x="131.04" xlink:href="#m8df2acd1b5" y="48.410921"/>
     <use style="stroke:#000000;" x="132.269492" xlink:href="#m8df2acd1b5" y="48.410921"/>
     <use style="stroke:#000000;" x="133.498983" xlink:href="#m8df2acd1b5" y="48.789982"/>
     <use style="stroke:#000000;" x="134.728475" xlink:href="#m8df2acd1b5" y="49.501015"/>
     <use style="stroke:#000000;" x="135.957966" xlink:href="#m8df2acd1b5" y="49.501015"/>
     <use style="stroke:#000000;" x="137.187458" xlink:href="#m8df2acd1b5" y="49.501015"/>
     <use style="stroke:#000000;" x="138.416949" xlink:href="#m8df2acd1b5" y="49.501015"/>
     <use style="stroke:#000000;" x="139.646441" xlink:href="#m8df2acd1b5" y="49.501015"/>
     <use style="stroke:#000000;" x="140.875932" xlink:href="#m8df2acd1b5" y="49.501015"/>
     <use style="stroke:#000000;" x="142.105424" xlink:href="#m8df2acd1b5" y="49.501015"/>
     <use style="stroke:#000000;" x="143.334915" xlink:href="#m8df2acd1b5" y="49.501015"/>
     <use style="stroke:#000000;" x="144.564407" xlink:href="#m8df2acd1b5" y="49.501015"/>
     <use style="stroke:#000000;" x="145.793898" xlink:href="#m8df2acd1b5" y="49.501015"/>
     <use style="stroke:#000000;" x="147.02339" xlink:href="#m8df2acd1b5" y="51.489373"/>
     <use style="stroke:#000000;" x="148.252881" xlink:href="#m8df2acd1b5" y="51.489373"/>
     <use style="stroke:#000000;" x="149.482373" xlink:href="#m8df2acd1b5" y="53.392221"/>
     <use style="stroke:#000000;" x="150.711864" xlink:href="#m8df2acd1b5" y="53.57972"/>
     <use style="stroke:#000000;" x="151.941356" xlink:href="#m8df2acd1b5" y="53.57972"/>
     <use style="stroke:#000000;" x="153.170847" xlink:href="#m8df2acd1b5" y="53.57972"/>
     <use style="stroke:#000000;" x="154.400339" xlink:href="#m8df2acd1b5" y="53.57972"/>
     <use style="stroke:#000000;" x="155.629831" xlink:href="#m8df2acd1b5" y="54.669814"/>
     <use style="stroke:#000000;" x="156.859322" xlink:href="#m8df2acd1b5" y="54.669814"/>
     <use style="stroke:#000000;" x="158.088814" xlink:href="#m8df2acd1b5" y="54.669814"/>
     <use style="stroke:#000000;" x="159.318305" xlink:href="#m8df2acd1b5" y="54.669814"/>
     <use style="stroke:#000000;" x="160.547797" xlink:href="#m8df2acd1b5" y="54.669814"/>
     <use style="stroke:#000000;" x="161.777288" xlink:href="#m8df2acd1b5" y="54.669814"/>
     <use style="stroke:#000000;" x="163.00678" xlink:href="#m8df2acd1b5" y="54.669814"/>
     <use style="stroke:#000000;" x="164.236271" xlink:href="#m8df2acd1b5" y="54.669814"/>
     <use style="stroke:#000000;" x="165.465763" xlink:href="#m8df2acd1b5" y="54.669814"/>
     <use style="stroke:#000000;" x="166.695254" xlink:href="#m8df2acd1b5" y="54.669814"/>
     <use style="stroke:#000000;" x="167.924746" xlink:href="#m8df2acd1b5" y="54.669814"/>
     <use style="stroke:#000000;" x="169.154237" xlink:href="#m8df2acd1b5" y="56.966541"/>
     <use style="stroke:#000000;" x="170.383729" xlink:href="#m8df2acd1b5" y="56.966541"/>
     <use style="stroke:#000000;" x="171.61322" xlink:href="#m8df2acd1b5" y="56.966541"/>
     <use style="stroke:#000000;" x="172.842712" xlink:href="#m8df2acd1b5" y="56.966541"/>
     <use style="stroke:#000000;" x="174.072203" xlink:href="#m8df2acd1b5" y="57.037308"/>
     <use style="stroke:#000000;" x="175.301695" xlink:href="#m8df2acd1b5" y="57.037308"/>
     <use style="stroke:#000000;" x="176.531186" xlink:href="#m8df2acd1b5" y="57.037308"/>
     <use style="stroke:#000000;" x="177.760678" xlink:href="#m8df2acd1b5" y="57.037308"/>
     <use style="stroke:#000000;" x="178.990169" xlink:href="#m8df2acd1b5" y="57.037308"/>
     <use style="stroke:#000000;" x="180.219661" xlink:href="#m8df2acd1b5" y="57.037308"/>
     <use style="stroke:#000000;" x="181.449153" xlink:href="#m8df2acd1b5" y="57.19096"/>
     <use style="stroke:#000000;" x="182.678644" xlink:href="#m8df2acd1b5" y="57.19096"/>
     <use style="stroke:#000000;" x="183.908136" xlink:href="#m8df2acd1b5" y="57.416369"/>
     <use style="stroke:#000000;" x="185.137627" xlink:href="#m8df2acd1b5" y="58.127402"/>
     <use style="stroke:#000000;" x="186.367119" xlink:href="#m8df2acd1b5" y="58.127402"/>
     <use style="stroke:#000000;" x="187.59661" xlink:href="#m8df2acd1b5" y="58.127402"/>
     <use style="stroke:#000000;" x="188.826102" xlink:href="#m8df2acd1b5" y="58.127402"/>
     <use style="stroke:#000000;" x="190.055593" xlink:href="#m8df2acd1b5" y="58.127402"/>
     <use style="stroke:#000000;" x="191.285085" xlink:href="#m8df2acd1b5" y="58.869388"/>
     <use style="stroke:#000000;" x="192.514576" xlink:href="#m8df2acd1b5" y="58.869388"/>
     <use style="stroke:#000000;" x="193.744068" xlink:href="#m8df2acd1b5" y="58.869388"/>
     <use style="stroke:#000000;" x="194.973559" xlink:href="#m8df2acd1b5" y="58.869388"/>
     <use style="stroke:#000000;" x="196.203051" xlink:href="#m8df2acd1b5" y="59.056888"/>
     <use style="stroke:#000000;" x="197.432542" xlink:href="#m8df2acd1b5" y="59.056888"/>
     <use style="stroke:#000000;" x="198.662034" xlink:href="#m8df2acd1b5" y="59.056888"/>
     <use style="stroke:#000000;" x="199.891525" xlink:href="#m8df2acd1b5" y="59.056888"/>
     <use style="stroke:#000000;" x="201.121017" xlink:href="#m8df2acd1b5" y="59.056888"/>
     <use style="stroke:#000000;" x="202.350508" xlink:href="#m8df2acd1b5" y="59.056888"/>
     <use style="stroke:#000000;" x="203.58" xlink:href="#m8df2acd1b5" y="59.093808"/>
     <use style="stroke:#000000;" x="204.809492" xlink:href="#m8df2acd1b5" y="60.125694"/>
     <use style="stroke:#000000;" x="206.038983" xlink:href="#m8df2acd1b5" y="60.125694"/>
     <use style="stroke:#000000;" x="207.268475" xlink:href="#m8df2acd1b5" y="60.125694"/>
     <use style="stroke:#000000;" x="208.497966" xlink:href="#m8df2acd1b5" y="60.125694"/>
     <use style="stroke:#000000;" x="209.727458" xlink:href="#m8df2acd1b5" y="60.125694"/>
     <use style="stroke:#000000;" x="210.956949" xlink:href="#m8df2acd1b5" y="60.146982"/>
     <use style="stroke:#000000;" x="212.186441" xlink:href="#m8df2acd1b5" y="60.146982"/>
     <use style="stroke:#000000;" x="213.415932" xlink:href="#m8df2acd1b5" y="60.146982"/>
     <use style="stroke:#000000;" x="214.645424" xlink:href="#m8df2acd1b5" y="60.146982"/>
     <use style="stroke:#000000;" x="215.874915" xlink:href="#m8df2acd1b5" y="60.146982"/>
     <use style="stroke:#000000;" x="217.104407" xlink:href="#m8df2acd1b5" y="60.146982"/>
     <use style="stroke:#000000;" x="218.333898" xlink:href="#m8df2acd1b5" y="60.146982"/>
     <use style="stroke:#000000;" x="219.56339" xlink:href="#m8df2acd1b5" y="60.146982"/>
     <use style="stroke:#000000;" x="220.792881" xlink:href="#m8df2acd1b5" y="60.146982"/>
     <use style="stroke:#000000;" x="222.022373" xlink:href="#m8df2acd1b5" y="64.038188"/>
     <use style="stroke:#000000;" x="223.251864" xlink:href="#m8df2acd1b5" y="64.038188"/>
     <use style="stroke:#000000;" x="224.481356" xlink:href="#m8df2acd1b5" y="64.038188"/>
     <use style="stroke:#000000;" x="225.710847" xlink:href="#m8df2acd1b5" y="64.038188"/>
     <use style="stroke:#000000;" x="226.940339" xlink:href="#m8df2acd1b5" y="64.038188"/>
     <use style="stroke:#000000;" x="228.169831" xlink:href="#m8df2acd1b5" y="64.038188"/>
     <use style="stroke:#000000;" x="229.399322" xlink:href="#m8df2acd1b5" y="64.038188"/>
     <use style="stroke:#000000;" x="230.628814" xlink:href="#m8df2acd1b5" y="64.038188"/>
     <use style="stroke:#000000;" x="231.858305" xlink:href="#m8df2acd1b5" y="64.262608"/>
     <use style="stroke:#000000;" x="233.087797" xlink:href="#m8df2acd1b5" y="64.262608"/>
     <use style="stroke:#000000;" x="234.317288" xlink:href="#m8df2acd1b5" y="65.294494"/>
     <use style="stroke:#000000;" x="235.54678" xlink:href="#m8df2acd1b5" y="65.294494"/>
     <use style="stroke:#000000;" x="236.776271" xlink:href="#m8df2acd1b5" y="65.294494"/>
     <use style="stroke:#000000;" x="238.005763" xlink:href="#m8df2acd1b5" y="65.294494"/>
     <use style="stroke:#000000;" x="239.235254" xlink:href="#m8df2acd1b5" y="65.294494"/>
     <use style="stroke:#000000;" x="240.464746" xlink:href="#m8df2acd1b5" y="65.294494"/>
     <use style="stroke:#000000;" x="241.694237" xlink:href="#m8df2acd1b5" y="65.592928"/>
     <use style="stroke:#000000;" x="242.923729" xlink:href="#m8df2acd1b5" y="65.592928"/>
     <use style="stroke:#000000;" x="244.15322" xlink:href="#m8df2acd1b5" y="65.817348"/>
     <use style="stroke:#000000;" x="245.382712" xlink:href="#m8df2acd1b5" y="65.817348"/>
     <use style="stroke:#000000;" x="246.612203" xlink:href="#m8df2acd1b5" y="67.495776"/>
     <use style="stroke:#000000;" x="247.841695" xlink:href="#m8df2acd1b5" y="67.495776"/>
     <use style="stroke:#000000;" x="249.071186" xlink:href="#m8df2acd1b5" y="67.59122"/>
     <use style="stroke:#000000;" x="250.300678" xlink:href="#m8df2acd1b5" y="67.683275"/>
     <use style="stroke:#000000;" x="251.530169" xlink:href="#m8df2acd1b5" y="67.683275"/>
     <use style="stroke:#000000;" x="252.759661" xlink:href="#m8df2acd1b5" y="67.683275"/>
     <use style="stroke:#000000;" x="253.989153" xlink:href="#m8df2acd1b5" y="67.683275"/>
     <use style="stroke:#000000;" x="255.218644" xlink:href="#m8df2acd1b5" y="67.683275"/>
     <use style="stroke:#000000;" x="256.448136" xlink:href="#m8df2acd1b5" y="67.720196"/>
     <use style="stroke:#000000;" x="257.677627" xlink:href="#m8df2acd1b5" y="68.062336"/>
     <use style="stroke:#000000;" x="258.907119" xlink:href="#m8df2acd1b5" y="68.77337"/>
     <use style="stroke:#000000;" x="260.13661" xlink:href="#m8df2acd1b5" y="68.77337"/>
     <use style="stroke:#000000;" x="261.366102" xlink:href="#m8df2acd1b5" y="68.77337"/>
     <use style="stroke:#000000;" x="262.595593" xlink:href="#m8df2acd1b5" y="68.77337"/>
     <use style="stroke:#000000;" x="263.825085" xlink:href="#m8df2acd1b5" y="68.77337"/>
     <use style="stroke:#000000;" x="265.054576" xlink:href="#m8df2acd1b5" y="68.77337"/>
     <use style="stroke:#000000;" x="266.284068" xlink:href="#m8df2acd1b5" y="69.494068"/>
     <use style="stroke:#000000;" x="267.513559" xlink:href="#m8df2acd1b5" y="69.515356"/>
     <use style="stroke:#000000;" x="268.743051" xlink:href="#m8df2acd1b5" y="69.515356"/>
     <use style="stroke:#000000;" x="269.972542" xlink:href="#m8df2acd1b5" y="69.515356"/>
     <use style="stroke:#000000;" x="271.202034" xlink:href="#m8df2acd1b5" y="69.515356"/>
     <use style="stroke:#000000;" x="272.431525" xlink:href="#m8df2acd1b5" y="69.515356"/>
     <use style="stroke:#000000;" x="273.661017" xlink:href="#m8df2acd1b5" y="69.515356"/>
     <use style="stroke:#000000;" x="274.890508" xlink:href="#m8df2acd1b5" y="69.515356"/>
     <use style="stroke:#000000;" x="276.12" xlink:href="#m8df2acd1b5" y="69.515356"/>
     <use style="stroke:#000000;" x="277.349492" xlink:href="#m8df2acd1b5" y="69.515356"/>
     <use style="stroke:#000000;" x="278.578983" xlink:href="#m8df2acd1b5" y="69.515356"/>
     <use style="stroke:#000000;" x="279.808475" xlink:href="#m8df2acd1b5" y="69.515356"/>
     <use style="stroke:#000000;" x="281.037966" xlink:href="#m8df2acd1b5" y="69.515356"/>
     <use style="stroke:#000000;" x="282.267458" xlink:href="#m8df2acd1b5" y="69.515356"/>
     <use style="stroke:#000000;" x="283.496949" xlink:href="#m8df2acd1b5" y="69.739775"/>
     <use style="stroke:#000000;" x="284.726441" xlink:href="#m8df2acd1b5" y="69.739775"/>
     <use style="stroke:#000000;" x="285.955932" xlink:href="#m8df2acd1b5" y="70.771661"/>
     <use style="stroke:#000000;" x="287.185424" xlink:href="#m8df2acd1b5" y="70.771661"/>
     <use style="stroke:#000000;" x="288.414915" xlink:href="#m8df2acd1b5" y="70.771661"/>
     <use style="stroke:#000000;" x="289.644407" xlink:href="#m8df2acd1b5" y="70.771661"/>
     <use style="stroke:#000000;" x="290.873898" xlink:href="#m8df2acd1b5" y="70.771661"/>
     <use style="stroke:#000000;" x="292.10339" xlink:href="#m8df2acd1b5" y="70.771661"/>
     <use style="stroke:#000000;" x="293.332881" xlink:href="#m8df2acd1b5" y="70.771661"/>
     <use style="stroke:#000000;" x="294.562373" xlink:href="#m8df2acd1b5" y="70.771661"/>
     <use style="stroke:#000000;" x="295.791864" xlink:href="#m8df2acd1b5" y="70.771661"/>
     <use style="stroke:#000000;" x="297.021356" xlink:href="#m8df2acd1b5" y="72.760019"/>
     <use style="stroke:#000000;" x="298.250847" xlink:href="#m8df2acd1b5" y="72.760019"/>
     <use style="stroke:#000000;" x="299.480339" xlink:href="#m8df2acd1b5" y="72.818227"/>
     <use style="stroke:#000000;" x="300.709831" xlink:href="#m8df2acd1b5" y="72.818227"/>
     <use style="stroke:#000000;" x="301.939322" xlink:href="#m8df2acd1b5" y="74.662867"/>
     <use style="stroke:#000000;" x="303.168814" xlink:href="#m8df2acd1b5" y="74.662867"/>
     <use style="stroke:#000000;" x="304.398305" xlink:href="#m8df2acd1b5" y="74.684155"/>
     <use style="stroke:#000000;" x="305.627797" xlink:href="#m8df2acd1b5" y="74.684155"/>
     <use style="stroke:#000000;" x="306.857288" xlink:href="#m8df2acd1b5" y="74.684155"/>
     <use style="stroke:#000000;" x="308.08678" xlink:href="#m8df2acd1b5" y="74.684155"/>
     <use style="stroke:#000000;" x="309.316271" xlink:href="#m8df2acd1b5" y="74.684155"/>
     <use style="stroke:#000000;" x="310.545763" xlink:href="#m8df2acd1b5" y="74.684155"/>
     <use style="stroke:#000000;" x="311.775254" xlink:href="#m8df2acd1b5" y="74.684155"/>
     <use style="stroke:#000000;" x="313.004746" xlink:href="#m8df2acd1b5" y="74.684155"/>
     <use style="stroke:#000000;" x="314.234237" xlink:href="#m8df2acd1b5" y="74.684155"/>
     <use style="stroke:#000000;" x="315.463729" xlink:href="#m8df2acd1b5" y="74.721075"/>
     <use style="stroke:#000000;" x="316.69322" xlink:href="#m8df2acd1b5" y="74.908575"/>
     <use style="stroke:#000000;" x="317.922712" xlink:href="#m8df2acd1b5" y="75.940461"/>
     <use style="stroke:#000000;" x="319.152203" xlink:href="#m8df2acd1b5" y="75.940461"/>
     <use style="stroke:#000000;" x="320.381695" xlink:href="#m8df2acd1b5" y="75.940461"/>
     <use style="stroke:#000000;" x="321.611186" xlink:href="#m8df2acd1b5" y="75.940461"/>
     <use style="stroke:#000000;" x="322.840678" xlink:href="#m8df2acd1b5" y="75.940461"/>
     <use style="stroke:#000000;" x="324.070169" xlink:href="#m8df2acd1b5" y="78.141743"/>
     <use style="stroke:#000000;" x="325.299661" xlink:href="#m8df2acd1b5" y="78.237187"/>
     <use style="stroke:#000000;" x="326.529153" xlink:href="#m8df2acd1b5" y="78.295395"/>
     <use style="stroke:#000000;" x="327.758644" xlink:href="#m8df2acd1b5" y="78.295395"/>
     <use style="stroke:#000000;" x="328.988136" xlink:href="#m8df2acd1b5" y="78.295395"/>
     <use style="stroke:#000000;" x="330.217627" xlink:href="#m8df2acd1b5" y="78.295395"/>
     <use style="stroke:#000000;" x="331.447119" xlink:href="#m8df2acd1b5" y="78.295395"/>
     <use style="stroke:#000000;" x="332.67661" xlink:href="#m8df2acd1b5" y="78.366163"/>
     <use style="stroke:#000000;" x="333.906102" xlink:href="#m8df2acd1b5" y="79.398049"/>
     <use style="stroke:#000000;" x="335.135593" xlink:href="#m8df2acd1b5" y="79.398049"/>
     <use style="stroke:#000000;" x="336.365085" xlink:href="#m8df2acd1b5" y="79.398049"/>
     <use style="stroke:#000000;" x="337.594576" xlink:href="#m8df2acd1b5" y="80.140035"/>
     <use style="stroke:#000000;" x="338.824068" xlink:href="#m8df2acd1b5" y="80.140035"/>
     <use style="stroke:#000000;" x="340.053559" xlink:href="#m8df2acd1b5" y="80.140035"/>
     <use style="stroke:#000000;" x="341.283051" xlink:href="#m8df2acd1b5" y="80.140035"/>
     <use style="stroke:#000000;" x="342.512542" xlink:href="#m8df2acd1b5" y="80.140035"/>
     <use style="stroke:#000000;" x="343.742034" xlink:href="#m8df2acd1b5" y="80.140035"/>
     <use style="stroke:#000000;" x="344.971525" xlink:href="#m8df2acd1b5" y="80.161323"/>
     <use style="stroke:#000000;" x="346.201017" xlink:href="#m8df2acd1b5" y="80.161323"/>
     <use style="stroke:#000000;" x="347.430508" xlink:href="#m8df2acd1b5" y="80.161323"/>
     <use style="stroke:#000000;" x="348.66" xlink:href="#m8df2acd1b5" y="80.161323"/>
     <use style="stroke:#000000;" x="349.889492" xlink:href="#m8df2acd1b5" y="80.161323"/>
     <use style="stroke:#000000;" x="351.118983" xlink:href="#m8df2acd1b5" y="80.161323"/>
     <use style="stroke:#000000;" x="352.348475" xlink:href="#m8df2acd1b5" y="80.161323"/>
     <use style="stroke:#000000;" x="353.577966" xlink:href="#m8df2acd1b5" y="80.198243"/>
     <use style="stroke:#000000;" x="354.807458" xlink:href="#m8df2acd1b5" y="80.385743"/>
     <use style="stroke:#000000;" x="356.036949" xlink:href="#m8df2acd1b5" y="81.417629"/>
     <use style="stroke:#000000;" x="357.266441" xlink:href="#m8df2acd1b5" y="81.417629"/>
     <use style="stroke:#000000;" x="358.495932" xlink:href="#m8df2acd1b5" y="81.417629"/>
     <use style="stroke:#000000;" x="359.725424" xlink:href="#m8df2acd1b5" y="81.575508"/>
     <use style="stroke:#000000;" x="360.954915" xlink:href="#m8df2acd1b5" y="81.575508"/>
     <use style="stroke:#000000;" x="362.184407" xlink:href="#m8df2acd1b5" y="81.575508"/>
     <use style="stroke:#000000;" x="363.413898" xlink:href="#m8df2acd1b5" y="81.575508"/>
     <use style="stroke:#000000;" x="364.64339" xlink:href="#m8df2acd1b5" y="85.308834"/>
     <use style="stroke:#000000;" x="365.872881" xlink:href="#m8df2acd1b5" y="85.367042"/>
     <use style="stroke:#000000;" x="367.102373" xlink:href="#m8df2acd1b5" y="85.367042"/>
     <use style="stroke:#000000;" x="368.331864" xlink:href="#m8df2acd1b5" y="86.744307"/>
     <use style="stroke:#000000;" x="369.561356" xlink:href="#m8df2acd1b5" y="86.744307"/>
     <use style="stroke:#000000;" x="370.790847" xlink:href="#m8df2acd1b5" y="86.744307"/>
     <use style="stroke:#000000;" x="372.020339" xlink:href="#m8df2acd1b5" y="86.921782"/>
     <use style="stroke:#000000;" x="373.249831" xlink:href="#m8df2acd1b5" y="88.78771"/>
     <use style="stroke:#000000;" x="374.479322" xlink:href="#m8df2acd1b5" y="89.041033"/>
     <use style="stroke:#000000;" x="375.708814" xlink:href="#m8df2acd1b5" y="90.044016"/>
     <use style="stroke:#000000;" x="376.938305" xlink:href="#m8df2acd1b5" y="90.786002"/>
     <use style="stroke:#000000;" x="378.167797" xlink:href="#m8df2acd1b5" y="90.786002"/>
     <use style="stroke:#000000;" x="379.397288" xlink:href="#m8df2acd1b5" y="90.786002"/>
     <use style="stroke:#000000;" x="380.62678" xlink:href="#m8df2acd1b5" y="90.786002"/>
     <use style="stroke:#000000;" x="381.856271" xlink:href="#m8df2acd1b5" y="90.786002"/>
     <use style="stroke:#000000;" x="383.085763" xlink:href="#m8df2acd1b5" y="90.84421"/>
     <use style="stroke:#000000;" x="384.315254" xlink:href="#m8df2acd1b5" y="90.943881"/>
     <use style="stroke:#000000;" x="385.544746" xlink:href="#m8df2acd1b5" y="92.221475"/>
     <use style="stroke:#000000;" x="386.774237" xlink:href="#m8df2acd1b5" y="92.221475"/>
     <use style="stroke:#000000;" x="388.003729" xlink:href="#m8df2acd1b5" y="92.221475"/>
     <use style="stroke:#000000;" x="389.23322" xlink:href="#m8df2acd1b5" y="92.221475"/>
     <use style="stroke:#000000;" x="390.462712" xlink:href="#m8df2acd1b5" y="92.221475"/>
     <use style="stroke:#000000;" x="391.692203" xlink:href="#m8df2acd1b5" y="92.221475"/>
     <use style="stroke:#000000;" x="392.921695" xlink:href="#m8df2acd1b5" y="94.088874"/>
     <use style="stroke:#000000;" x="394.151186" xlink:href="#m8df2acd1b5" y="95.954801"/>
     <use style="stroke:#000000;" x="395.380678" xlink:href="#m8df2acd1b5" y="95.954801"/>
     <use style="stroke:#000000;" x="396.610169" xlink:href="#m8df2acd1b5" y="97.390274"/>
     <use style="stroke:#000000;" x="397.839661" xlink:href="#m8df2acd1b5" y="99.412389"/>
     <use style="stroke:#000000;" x="399.069153" xlink:href="#m8df2acd1b5" y="99.470597"/>
     <use style="stroke:#000000;" x="400.298644" xlink:href="#m8df2acd1b5" y="99.566041"/>
     <use style="stroke:#000000;" x="401.528136" xlink:href="#m8df2acd1b5" y="99.566041"/>
     <use style="stroke:#000000;" x="402.757627" xlink:href="#m8df2acd1b5" y="101.431969"/>
     <use style="stroke:#000000;" x="403.987119" xlink:href="#m8df2acd1b5" y="101.589848"/>
     <use style="stroke:#000000;" x="405.21661" xlink:href="#m8df2acd1b5" y="101.589848"/>
     <use style="stroke:#000000;" x="406.446102" xlink:href="#m8df2acd1b5" y="102.867442"/>
     <use style="stroke:#000000;" x="407.675593" xlink:href="#m8df2acd1b5" y="102.867442"/>
     <use style="stroke:#000000;" x="408.905085" xlink:href="#m8df2acd1b5" y="103.219064"/>
     <use style="stroke:#000000;" x="410.134576" xlink:href="#m8df2acd1b5" y="103.219064"/>
     <use style="stroke:#000000;" x="411.364068" xlink:href="#m8df2acd1b5" y="110.369887"/>
     <use style="stroke:#000000;" x="412.593559" xlink:href="#m8df2acd1b5" y="112.114856"/>
     <use style="stroke:#000000;" x="413.823051" xlink:href="#m8df2acd1b5" y="112.114856"/>
     <use style="stroke:#000000;" x="415.052542" xlink:href="#m8df2acd1b5" y="112.235815"/>
     <use style="stroke:#000000;" x="416.282034" xlink:href="#m8df2acd1b5" y="112.235815"/>
     <use style="stroke:#000000;" x="417.511525" xlink:href="#m8df2acd1b5" y="117.404615"/>
     <use style="stroke:#000000;" x="418.741017" xlink:href="#m8df2acd1b5" y="119.033831"/>
     <use style="stroke:#000000;" x="419.970508" xlink:href="#m8df2acd1b5" y="122.918703"/>
    </g>
   </g>
   <g id="patch_3">
    <path d="M 58.5 128.16 
L 58.5 17.28 
" style="fill:none;stroke:#000000;stroke-linecap:square;stroke-linejoin:miter;stroke-width:0.8;"/>
   </g>
   <g id="patch_4">
    <path d="M 421.2 128.16 
L 421.2 17.28 
" style="fill:none;stroke:#000000;stroke-linecap:square;stroke-linejoin:miter;stroke-width:0.8;"/>
   </g>
   <g id="patch_5">
    <path d="M 58.5 128.16 
L 421.2 128.16 
" style="fill:none;stroke:#000000;stroke-linecap:square;stroke-linejoin:miter;stroke-width:0.8;"/>
   </g>
   <g id="patch_6">
    <path d="M 58.5 17.28 
L 421.2 17.28 
" style="fill:none;stroke:#000000;stroke-linecap:square;stroke-linejoin:miter;stroke-width:0.8;"/>
   </g>
  </g>
 </g>
</svg>
