<?xml version="1.0" encoding="utf-8" standalone="no"?>
<!DOCTYPE svg PUBLIC "-//W3C//DTD SVG 1.1//EN"
  "http://www.w3.org/Graphics/SVG/1.1/DTD/svg11.dtd">
<svg height="144pt" version="1.1" viewBox="0 0 468 144" width="468pt" xmlns="http://www.w3.org/2000/svg" xmlns:xlink="http://www.w3.org/1999/xlink">
 <metadata>
  <rdf:RDF xmlns:cc="http://creativecommons.org/ns#" xmlns:dc="http://purl.org/dc/elements/1.1/" xmlns:rdf="http://www.w3.org/1999/02/22-rdf-syntax-ns#">
   <cc:Work>
    <dc:type rdf:resource="http://purl.org/dc/dcmitype/StillImage"/>
    <dc:date>2022-01-07T00:49:51.275678</dc:date>
    <dc:format>image/svg+xml</dc:format>
    <dc:creator>
     <cc:Agent>
      <dc:title>Matplotlib v3.4.2, https://matplotlib.org/</dc:title>
     </cc:Agent>
    </dc:creator>
   </cc:Work>
  </rdf:RDF>
 </metadata>
 <defs>
  <style type="text/css">*{stroke-linecap:butt;stroke-linejoin:round;}</style>
 </defs>
 <g id="figure_1">
  <g id="patch_1">
   <path d="M 0 144 
L 468 144 
L 468 0 
L 0 0 
z
" style="fill:#ffffff;"/>
  </g>
  <g id="axes_1">
   <g id="patch_2">
    <path d="M 58.5 128.16 
L 421.2 128.16 
L 421.2 17.28 
L 58.5 17.28 
z
" style="fill:#ffffff;"/>
   </g>
   <g id="matplotlib.axis_1">
    <g id="xtick_1">
     <g id="line2d_1">
      <defs>
       <path d="M 0 0 
L 0 3.5 
" id="mfc2256105f" style="stroke:#000000;stroke-width:0.8;"/>
      </defs>
      <g>
       <use style="stroke:#000000;stroke-width:0.8;" x="60.277941" xlink:href="#mfc2256105f" y="128.16"/>
      </g>
     </g>
     <g id="line2d_2">
      <defs>
       <path d="M 0 0 
L 0 -3.5 
" id="m691aa50566" style="stroke:#000000;stroke-width:0.8;"/>
      </defs>
      <g>
       <use style="stroke:#000000;stroke-width:0.8;" x="60.277941" xlink:href="#m691aa50566" y="17.28"/>
      </g>
     </g>
     <g id="text_1">
      <!-- 0 -->
      <g transform="translate(57.096691 142.758438)scale(0.1 -0.1)">
       <defs>
        <path d="M 2034 4250 
Q 1547 4250 1301 3770 
Q 1056 3291 1056 2328 
Q 1056 1369 1301 889 
Q 1547 409 2034 409 
Q 2525 409 2770 889 
Q 3016 1369 3016 2328 
Q 3016 3291 2770 3770 
Q 2525 4250 2034 4250 
z
M 2034 4750 
Q 2819 4750 3233 4129 
Q 3647 3509 3647 2328 
Q 3647 1150 3233 529 
Q 2819 -91 2034 -91 
Q 1250 -91 836 529 
Q 422 1150 422 2328 
Q 422 3509 836 4129 
Q 1250 4750 2034 4750 
z
" id="DejaVuSans-30" transform="scale(0.015625)"/>
       </defs>
       <use xlink:href="#DejaVuSans-30"/>
      </g>
     </g>
    </g>
    <g id="xtick_2">
     <g id="line2d_3">
      <g>
       <use style="stroke:#000000;stroke-width:0.8;" x="104.726471" xlink:href="#mfc2256105f" y="128.16"/>
      </g>
     </g>
     <g id="line2d_4">
      <g>
       <use style="stroke:#000000;stroke-width:0.8;" x="104.726471" xlink:href="#m691aa50566" y="17.28"/>
      </g>
     </g>
     <g id="text_2">
      <!-- 25 -->
      <g transform="translate(98.363971 142.758438)scale(0.1 -0.1)">
       <defs>
        <path d="M 1228 531 
L 3431 531 
L 3431 0 
L 469 0 
L 469 531 
Q 828 903 1448 1529 
Q 2069 2156 2228 2338 
Q 2531 2678 2651 2914 
Q 2772 3150 2772 3378 
Q 2772 3750 2511 3984 
Q 2250 4219 1831 4219 
Q 1534 4219 1204 4116 
Q 875 4013 500 3803 
L 500 4441 
Q 881 4594 1212 4672 
Q 1544 4750 1819 4750 
Q 2544 4750 2975 4387 
Q 3406 4025 3406 3419 
Q 3406 3131 3298 2873 
Q 3191 2616 2906 2266 
Q 2828 2175 2409 1742 
Q 1991 1309 1228 531 
z
" id="DejaVuSans-32" transform="scale(0.015625)"/>
        <path d="M 691 4666 
L 3169 4666 
L 3169 4134 
L 1269 4134 
L 1269 2991 
Q 1406 3038 1543 3061 
Q 1681 3084 1819 3084 
Q 2600 3084 3056 2656 
Q 3513 2228 3513 1497 
Q 3513 744 3044 326 
Q 2575 -91 1722 -91 
Q 1428 -91 1123 -41 
Q 819 9 494 109 
L 494 744 
Q 775 591 1075 516 
Q 1375 441 1709 441 
Q 2250 441 2565 725 
Q 2881 1009 2881 1497 
Q 2881 1984 2565 2268 
Q 2250 2553 1709 2553 
Q 1456 2553 1204 2497 
Q 953 2441 691 2322 
L 691 4666 
z
" id="DejaVuSans-35" transform="scale(0.015625)"/>
       </defs>
       <use xlink:href="#DejaVuSans-32"/>
       <use x="63.623047" xlink:href="#DejaVuSans-35"/>
      </g>
     </g>
    </g>
    <g id="xtick_3">
     <g id="line2d_5">
      <g>
       <use style="stroke:#000000;stroke-width:0.8;" x="149.175" xlink:href="#mfc2256105f" y="128.16"/>
      </g>
     </g>
     <g id="line2d_6">
      <g>
       <use style="stroke:#000000;stroke-width:0.8;" x="149.175" xlink:href="#m691aa50566" y="17.28"/>
      </g>
     </g>
     <g id="text_3">
      <!-- 50 -->
      <g transform="translate(142.8125 142.758438)scale(0.1 -0.1)">
       <use xlink:href="#DejaVuSans-35"/>
       <use x="63.623047" xlink:href="#DejaVuSans-30"/>
      </g>
     </g>
    </g>
    <g id="xtick_4">
     <g id="line2d_7">
      <g>
       <use style="stroke:#000000;stroke-width:0.8;" x="193.623529" xlink:href="#mfc2256105f" y="128.16"/>
      </g>
     </g>
     <g id="line2d_8">
      <g>
       <use style="stroke:#000000;stroke-width:0.8;" x="193.623529" xlink:href="#m691aa50566" y="17.28"/>
      </g>
     </g>
     <g id="text_4">
      <!-- 75 -->
      <g transform="translate(187.261029 142.758438)scale(0.1 -0.1)">
       <defs>
        <path d="M 525 4666 
L 3525 4666 
L 3525 4397 
L 1831 0 
L 1172 0 
L 2766 4134 
L 525 4134 
L 525 4666 
z
" id="DejaVuSans-37" transform="scale(0.015625)"/>
       </defs>
       <use xlink:href="#DejaVuSans-37"/>
       <use x="63.623047" xlink:href="#DejaVuSans-35"/>
      </g>
     </g>
    </g>
    <g id="xtick_5">
     <g id="line2d_9">
      <g>
       <use style="stroke:#000000;stroke-width:0.8;" x="238.072059" xlink:href="#mfc2256105f" y="128.16"/>
      </g>
     </g>
     <g id="line2d_10">
      <g>
       <use style="stroke:#000000;stroke-width:0.8;" x="238.072059" xlink:href="#m691aa50566" y="17.28"/>
      </g>
     </g>
     <g id="text_5">
      <!-- 100 -->
      <g transform="translate(228.528309 142.758438)scale(0.1 -0.1)">
       <defs>
        <path d="M 794 531 
L 1825 531 
L 1825 4091 
L 703 3866 
L 703 4441 
L 1819 4666 
L 2450 4666 
L 2450 531 
L 3481 531 
L 3481 0 
L 794 0 
L 794 531 
z
" id="DejaVuSans-31" transform="scale(0.015625)"/>
       </defs>
       <use xlink:href="#DejaVuSans-31"/>
       <use x="63.623047" xlink:href="#DejaVuSans-30"/>
       <use x="127.246094" xlink:href="#DejaVuSans-30"/>
      </g>
     </g>
    </g>
    <g id="xtick_6">
     <g id="line2d_11">
      <g>
       <use style="stroke:#000000;stroke-width:0.8;" x="282.520588" xlink:href="#mfc2256105f" y="128.16"/>
      </g>
     </g>
     <g id="line2d_12">
      <g>
       <use style="stroke:#000000;stroke-width:0.8;" x="282.520588" xlink:href="#m691aa50566" y="17.28"/>
      </g>
     </g>
     <g id="text_6">
      <!-- 125 -->
      <g transform="translate(272.976838 142.758438)scale(0.1 -0.1)">
       <use xlink:href="#DejaVuSans-31"/>
       <use x="63.623047" xlink:href="#DejaVuSans-32"/>
       <use x="127.246094" xlink:href="#DejaVuSans-35"/>
      </g>
     </g>
    </g>
    <g id="xtick_7">
     <g id="line2d_13">
      <g>
       <use style="stroke:#000000;stroke-width:0.8;" x="326.969118" xlink:href="#mfc2256105f" y="128.16"/>
      </g>
     </g>
     <g id="line2d_14">
      <g>
       <use style="stroke:#000000;stroke-width:0.8;" x="326.969118" xlink:href="#m691aa50566" y="17.28"/>
      </g>
     </g>
     <g id="text_7">
      <!-- 150 -->
      <g transform="translate(317.425368 142.758438)scale(0.1 -0.1)">
       <use xlink:href="#DejaVuSans-31"/>
       <use x="63.623047" xlink:href="#DejaVuSans-35"/>
       <use x="127.246094" xlink:href="#DejaVuSans-30"/>
      </g>
     </g>
    </g>
    <g id="xtick_8">
     <g id="line2d_15">
      <g>
       <use style="stroke:#000000;stroke-width:0.8;" x="371.417647" xlink:href="#mfc2256105f" y="128.16"/>
      </g>
     </g>
     <g id="line2d_16">
      <g>
       <use style="stroke:#000000;stroke-width:0.8;" x="371.417647" xlink:href="#m691aa50566" y="17.28"/>
      </g>
     </g>
     <g id="text_8">
      <!-- 175 -->
      <g transform="translate(361.873897 142.758438)scale(0.1 -0.1)">
       <use xlink:href="#DejaVuSans-31"/>
       <use x="63.623047" xlink:href="#DejaVuSans-37"/>
       <use x="127.246094" xlink:href="#DejaVuSans-35"/>
      </g>
     </g>
    </g>
    <g id="xtick_9">
     <g id="line2d_17">
      <g>
       <use style="stroke:#000000;stroke-width:0.8;" x="415.866176" xlink:href="#mfc2256105f" y="128.16"/>
      </g>
     </g>
     <g id="line2d_18">
      <g>
       <use style="stroke:#000000;stroke-width:0.8;" x="415.866176" xlink:href="#m691aa50566" y="17.28"/>
      </g>
     </g>
     <g id="text_9">
      <!-- 200 -->
      <g transform="translate(406.322426 142.758438)scale(0.1 -0.1)">
       <use xlink:href="#DejaVuSans-32"/>
       <use x="63.623047" xlink:href="#DejaVuSans-30"/>
       <use x="127.246094" xlink:href="#DejaVuSans-30"/>
      </g>
     </g>
    </g>
    <g id="text_10">
     <!-- parsimony tree -->
     <g transform="translate(201.859375 156.436563)scale(0.1 -0.1)">
      <defs>
       <path d="M 1159 525 
L 1159 -1331 
L 581 -1331 
L 581 3500 
L 1159 3500 
L 1159 2969 
Q 1341 3281 1617 3432 
Q 1894 3584 2278 3584 
Q 2916 3584 3314 3078 
Q 3713 2572 3713 1747 
Q 3713 922 3314 415 
Q 2916 -91 2278 -91 
Q 1894 -91 1617 61 
Q 1341 213 1159 525 
z
M 3116 1747 
Q 3116 2381 2855 2742 
Q 2594 3103 2138 3103 
Q 1681 3103 1420 2742 
Q 1159 2381 1159 1747 
Q 1159 1113 1420 752 
Q 1681 391 2138 391 
Q 2594 391 2855 752 
Q 3116 1113 3116 1747 
z
" id="DejaVuSans-70" transform="scale(0.015625)"/>
       <path d="M 2194 1759 
Q 1497 1759 1228 1600 
Q 959 1441 959 1056 
Q 959 750 1161 570 
Q 1363 391 1709 391 
Q 2188 391 2477 730 
Q 2766 1069 2766 1631 
L 2766 1759 
L 2194 1759 
z
M 3341 1997 
L 3341 0 
L 2766 0 
L 2766 531 
Q 2569 213 2275 61 
Q 1981 -91 1556 -91 
Q 1019 -91 701 211 
Q 384 513 384 1019 
Q 384 1609 779 1909 
Q 1175 2209 1959 2209 
L 2766 2209 
L 2766 2266 
Q 2766 2663 2505 2880 
Q 2244 3097 1772 3097 
Q 1472 3097 1187 3025 
Q 903 2953 641 2809 
L 641 3341 
Q 956 3463 1253 3523 
Q 1550 3584 1831 3584 
Q 2591 3584 2966 3190 
Q 3341 2797 3341 1997 
z
" id="DejaVuSans-61" transform="scale(0.015625)"/>
       <path d="M 2631 2963 
Q 2534 3019 2420 3045 
Q 2306 3072 2169 3072 
Q 1681 3072 1420 2755 
Q 1159 2438 1159 1844 
L 1159 0 
L 581 0 
L 581 3500 
L 1159 3500 
L 1159 2956 
Q 1341 3275 1631 3429 
Q 1922 3584 2338 3584 
Q 2397 3584 2469 3576 
Q 2541 3569 2628 3553 
L 2631 2963 
z
" id="DejaVuSans-72" transform="scale(0.015625)"/>
       <path d="M 2834 3397 
L 2834 2853 
Q 2591 2978 2328 3040 
Q 2066 3103 1784 3103 
Q 1356 3103 1142 2972 
Q 928 2841 928 2578 
Q 928 2378 1081 2264 
Q 1234 2150 1697 2047 
L 1894 2003 
Q 2506 1872 2764 1633 
Q 3022 1394 3022 966 
Q 3022 478 2636 193 
Q 2250 -91 1575 -91 
Q 1294 -91 989 -36 
Q 684 19 347 128 
L 347 722 
Q 666 556 975 473 
Q 1284 391 1588 391 
Q 1994 391 2212 530 
Q 2431 669 2431 922 
Q 2431 1156 2273 1281 
Q 2116 1406 1581 1522 
L 1381 1569 
Q 847 1681 609 1914 
Q 372 2147 372 2553 
Q 372 3047 722 3315 
Q 1072 3584 1716 3584 
Q 2034 3584 2315 3537 
Q 2597 3491 2834 3397 
z
" id="DejaVuSans-73" transform="scale(0.015625)"/>
       <path d="M 603 3500 
L 1178 3500 
L 1178 0 
L 603 0 
L 603 3500 
z
M 603 4863 
L 1178 4863 
L 1178 4134 
L 603 4134 
L 603 4863 
z
" id="DejaVuSans-69" transform="scale(0.015625)"/>
       <path d="M 3328 2828 
Q 3544 3216 3844 3400 
Q 4144 3584 4550 3584 
Q 5097 3584 5394 3201 
Q 5691 2819 5691 2113 
L 5691 0 
L 5113 0 
L 5113 2094 
Q 5113 2597 4934 2840 
Q 4756 3084 4391 3084 
Q 3944 3084 3684 2787 
Q 3425 2491 3425 1978 
L 3425 0 
L 2847 0 
L 2847 2094 
Q 2847 2600 2669 2842 
Q 2491 3084 2119 3084 
Q 1678 3084 1418 2786 
Q 1159 2488 1159 1978 
L 1159 0 
L 581 0 
L 581 3500 
L 1159 3500 
L 1159 2956 
Q 1356 3278 1631 3431 
Q 1906 3584 2284 3584 
Q 2666 3584 2933 3390 
Q 3200 3197 3328 2828 
z
" id="DejaVuSans-6d" transform="scale(0.015625)"/>
       <path d="M 1959 3097 
Q 1497 3097 1228 2736 
Q 959 2375 959 1747 
Q 959 1119 1226 758 
Q 1494 397 1959 397 
Q 2419 397 2687 759 
Q 2956 1122 2956 1747 
Q 2956 2369 2687 2733 
Q 2419 3097 1959 3097 
z
M 1959 3584 
Q 2709 3584 3137 3096 
Q 3566 2609 3566 1747 
Q 3566 888 3137 398 
Q 2709 -91 1959 -91 
Q 1206 -91 779 398 
Q 353 888 353 1747 
Q 353 2609 779 3096 
Q 1206 3584 1959 3584 
z
" id="DejaVuSans-6f" transform="scale(0.015625)"/>
       <path d="M 3513 2113 
L 3513 0 
L 2938 0 
L 2938 2094 
Q 2938 2591 2744 2837 
Q 2550 3084 2163 3084 
Q 1697 3084 1428 2787 
Q 1159 2491 1159 1978 
L 1159 0 
L 581 0 
L 581 3500 
L 1159 3500 
L 1159 2956 
Q 1366 3272 1645 3428 
Q 1925 3584 2291 3584 
Q 2894 3584 3203 3211 
Q 3513 2838 3513 2113 
z
" id="DejaVuSans-6e" transform="scale(0.015625)"/>
       <path d="M 2059 -325 
Q 1816 -950 1584 -1140 
Q 1353 -1331 966 -1331 
L 506 -1331 
L 506 -850 
L 844 -850 
Q 1081 -850 1212 -737 
Q 1344 -625 1503 -206 
L 1606 56 
L 191 3500 
L 800 3500 
L 1894 763 
L 2988 3500 
L 3597 3500 
L 2059 -325 
z
" id="DejaVuSans-79" transform="scale(0.015625)"/>
       <path id="DejaVuSans-20" transform="scale(0.015625)"/>
       <path d="M 1172 4494 
L 1172 3500 
L 2356 3500 
L 2356 3053 
L 1172 3053 
L 1172 1153 
Q 1172 725 1289 603 
Q 1406 481 1766 481 
L 2356 481 
L 2356 0 
L 1766 0 
Q 1100 0 847 248 
Q 594 497 594 1153 
L 594 3053 
L 172 3053 
L 172 3500 
L 594 3500 
L 594 4494 
L 1172 4494 
z
" id="DejaVuSans-74" transform="scale(0.015625)"/>
       <path d="M 3597 1894 
L 3597 1613 
L 953 1613 
Q 991 1019 1311 708 
Q 1631 397 2203 397 
Q 2534 397 2845 478 
Q 3156 559 3463 722 
L 3463 178 
Q 3153 47 2828 -22 
Q 2503 -91 2169 -91 
Q 1331 -91 842 396 
Q 353 884 353 1716 
Q 353 2575 817 3079 
Q 1281 3584 2069 3584 
Q 2775 3584 3186 3129 
Q 3597 2675 3597 1894 
z
M 3022 2063 
Q 3016 2534 2758 2815 
Q 2500 3097 2075 3097 
Q 1594 3097 1305 2825 
Q 1016 2553 972 2059 
L 3022 2063 
z
" id="DejaVuSans-65" transform="scale(0.015625)"/>
      </defs>
      <use xlink:href="#DejaVuSans-70"/>
      <use x="63.476562" xlink:href="#DejaVuSans-61"/>
      <use x="124.755859" xlink:href="#DejaVuSans-72"/>
      <use x="165.869141" xlink:href="#DejaVuSans-73"/>
      <use x="217.96875" xlink:href="#DejaVuSans-69"/>
      <use x="245.751953" xlink:href="#DejaVuSans-6d"/>
      <use x="343.164062" xlink:href="#DejaVuSans-6f"/>
      <use x="404.345703" xlink:href="#DejaVuSans-6e"/>
      <use x="467.724609" xlink:href="#DejaVuSans-79"/>
      <use x="526.904297" xlink:href="#DejaVuSans-20"/>
      <use x="558.691406" xlink:href="#DejaVuSans-74"/>
      <use x="597.900391" xlink:href="#DejaVuSans-72"/>
      <use x="636.763672" xlink:href="#DejaVuSans-65"/>
      <use x="698.287109" xlink:href="#DejaVuSans-65"/>
     </g>
    </g>
   </g>
   <g id="matplotlib.axis_2">
    <g id="ytick_1">
     <g id="line2d_19">
      <defs>
       <path d="M 0 0 
L -3.5 0 
" id="m335c5f7764" style="stroke:#000000;stroke-width:0.8;"/>
      </defs>
      <g>
       <use style="stroke:#000000;stroke-width:0.8;" x="58.5" xlink:href="#m335c5f7764" y="99.13921"/>
      </g>
     </g>
     <g id="text_11">
      <!-- $\mathdefault{10^{-38}}$ -->
      <g transform="translate(23.6 102.938429)scale(0.1 -0.1)">
       <defs>
        <path d="M 678 2272 
L 4684 2272 
L 4684 1741 
L 678 1741 
L 678 2272 
z
" id="DejaVuSans-2212" transform="scale(0.015625)"/>
        <path d="M 2597 2516 
Q 3050 2419 3304 2112 
Q 3559 1806 3559 1356 
Q 3559 666 3084 287 
Q 2609 -91 1734 -91 
Q 1441 -91 1130 -33 
Q 819 25 488 141 
L 488 750 
Q 750 597 1062 519 
Q 1375 441 1716 441 
Q 2309 441 2620 675 
Q 2931 909 2931 1356 
Q 2931 1769 2642 2001 
Q 2353 2234 1838 2234 
L 1294 2234 
L 1294 2753 
L 1863 2753 
Q 2328 2753 2575 2939 
Q 2822 3125 2822 3475 
Q 2822 3834 2567 4026 
Q 2313 4219 1838 4219 
Q 1578 4219 1281 4162 
Q 984 4106 628 3988 
L 628 4550 
Q 988 4650 1302 4700 
Q 1616 4750 1894 4750 
Q 2613 4750 3031 4423 
Q 3450 4097 3450 3541 
Q 3450 3153 3228 2886 
Q 3006 2619 2597 2516 
z
" id="DejaVuSans-33" transform="scale(0.015625)"/>
        <path d="M 2034 2216 
Q 1584 2216 1326 1975 
Q 1069 1734 1069 1313 
Q 1069 891 1326 650 
Q 1584 409 2034 409 
Q 2484 409 2743 651 
Q 3003 894 3003 1313 
Q 3003 1734 2745 1975 
Q 2488 2216 2034 2216 
z
M 1403 2484 
Q 997 2584 770 2862 
Q 544 3141 544 3541 
Q 544 4100 942 4425 
Q 1341 4750 2034 4750 
Q 2731 4750 3128 4425 
Q 3525 4100 3525 3541 
Q 3525 3141 3298 2862 
Q 3072 2584 2669 2484 
Q 3125 2378 3379 2068 
Q 3634 1759 3634 1313 
Q 3634 634 3220 271 
Q 2806 -91 2034 -91 
Q 1263 -91 848 271 
Q 434 634 434 1313 
Q 434 1759 690 2068 
Q 947 2378 1403 2484 
z
M 1172 3481 
Q 1172 3119 1398 2916 
Q 1625 2713 2034 2713 
Q 2441 2713 2670 2916 
Q 2900 3119 2900 3481 
Q 2900 3844 2670 4047 
Q 2441 4250 2034 4250 
Q 1625 4250 1398 4047 
Q 1172 3844 1172 3481 
z
" id="DejaVuSans-38" transform="scale(0.015625)"/>
       </defs>
       <use transform="translate(0 0.765625)" xlink:href="#DejaVuSans-31"/>
       <use transform="translate(63.623047 0.765625)" xlink:href="#DejaVuSans-30"/>
       <use transform="translate(128.203125 39.046875)scale(0.7)" xlink:href="#DejaVuSans-2212"/>
       <use transform="translate(186.855469 39.046875)scale(0.7)" xlink:href="#DejaVuSans-33"/>
       <use transform="translate(231.391602 39.046875)scale(0.7)" xlink:href="#DejaVuSans-38"/>
      </g>
     </g>
    </g>
    <g id="ytick_2">
     <g id="line2d_20">
      <g>
       <use style="stroke:#000000;stroke-width:0.8;" x="58.5" xlink:href="#m335c5f7764" y="59.819768"/>
      </g>
     </g>
     <g id="text_12">
      <!-- $\mathdefault{10^{-36}}$ -->
      <g transform="translate(23.6 63.618987)scale(0.1 -0.1)">
       <defs>
        <path d="M 2113 2584 
Q 1688 2584 1439 2293 
Q 1191 2003 1191 1497 
Q 1191 994 1439 701 
Q 1688 409 2113 409 
Q 2538 409 2786 701 
Q 3034 994 3034 1497 
Q 3034 2003 2786 2293 
Q 2538 2584 2113 2584 
z
M 3366 4563 
L 3366 3988 
Q 3128 4100 2886 4159 
Q 2644 4219 2406 4219 
Q 1781 4219 1451 3797 
Q 1122 3375 1075 2522 
Q 1259 2794 1537 2939 
Q 1816 3084 2150 3084 
Q 2853 3084 3261 2657 
Q 3669 2231 3669 1497 
Q 3669 778 3244 343 
Q 2819 -91 2113 -91 
Q 1303 -91 875 529 
Q 447 1150 447 2328 
Q 447 3434 972 4092 
Q 1497 4750 2381 4750 
Q 2619 4750 2861 4703 
Q 3103 4656 3366 4563 
z
" id="DejaVuSans-36" transform="scale(0.015625)"/>
       </defs>
       <use transform="translate(0 0.765625)" xlink:href="#DejaVuSans-31"/>
       <use transform="translate(63.623047 0.765625)" xlink:href="#DejaVuSans-30"/>
       <use transform="translate(128.203125 39.046875)scale(0.7)" xlink:href="#DejaVuSans-2212"/>
       <use transform="translate(186.855469 39.046875)scale(0.7)" xlink:href="#DejaVuSans-33"/>
       <use transform="translate(231.391602 39.046875)scale(0.7)" xlink:href="#DejaVuSans-36"/>
      </g>
     </g>
    </g>
    <g id="ytick_3">
     <g id="line2d_21">
      <g>
       <use style="stroke:#000000;stroke-width:0.8;" x="58.5" xlink:href="#m335c5f7764" y="20.500327"/>
      </g>
     </g>
     <g id="text_13">
      <!-- $\mathdefault{10^{-34}}$ -->
      <g transform="translate(23.6 24.299546)scale(0.1 -0.1)">
       <defs>
        <path d="M 2419 4116 
L 825 1625 
L 2419 1625 
L 2419 4116 
z
M 2253 4666 
L 3047 4666 
L 3047 1625 
L 3713 1625 
L 3713 1100 
L 3047 1100 
L 3047 0 
L 2419 0 
L 2419 1100 
L 313 1100 
L 313 1709 
L 2253 4666 
z
" id="DejaVuSans-34" transform="scale(0.015625)"/>
       </defs>
       <use transform="translate(0 0.765625)" xlink:href="#DejaVuSans-31"/>
       <use transform="translate(63.623047 0.765625)" xlink:href="#DejaVuSans-30"/>
       <use transform="translate(128.203125 39.046875)scale(0.7)" xlink:href="#DejaVuSans-2212"/>
       <use transform="translate(186.855469 39.046875)scale(0.7)" xlink:href="#DejaVuSans-33"/>
       <use transform="translate(231.391602 39.046875)scale(0.7)" xlink:href="#DejaVuSans-34"/>
      </g>
     </g>
    </g>
    <g id="text_14">
     <!-- gctree likelihood -->
     <g transform="translate(17.520312 114.097344)rotate(-90)scale(0.1 -0.1)">
      <defs>
       <path d="M 2906 1791 
Q 2906 2416 2648 2759 
Q 2391 3103 1925 3103 
Q 1463 3103 1205 2759 
Q 947 2416 947 1791 
Q 947 1169 1205 825 
Q 1463 481 1925 481 
Q 2391 481 2648 825 
Q 2906 1169 2906 1791 
z
M 3481 434 
Q 3481 -459 3084 -895 
Q 2688 -1331 1869 -1331 
Q 1566 -1331 1297 -1286 
Q 1028 -1241 775 -1147 
L 775 -588 
Q 1028 -725 1275 -790 
Q 1522 -856 1778 -856 
Q 2344 -856 2625 -561 
Q 2906 -266 2906 331 
L 2906 616 
Q 2728 306 2450 153 
Q 2172 0 1784 0 
Q 1141 0 747 490 
Q 353 981 353 1791 
Q 353 2603 747 3093 
Q 1141 3584 1784 3584 
Q 2172 3584 2450 3431 
Q 2728 3278 2906 2969 
L 2906 3500 
L 3481 3500 
L 3481 434 
z
" id="DejaVuSans-67" transform="scale(0.015625)"/>
       <path d="M 3122 3366 
L 3122 2828 
Q 2878 2963 2633 3030 
Q 2388 3097 2138 3097 
Q 1578 3097 1268 2742 
Q 959 2388 959 1747 
Q 959 1106 1268 751 
Q 1578 397 2138 397 
Q 2388 397 2633 464 
Q 2878 531 3122 666 
L 3122 134 
Q 2881 22 2623 -34 
Q 2366 -91 2075 -91 
Q 1284 -91 818 406 
Q 353 903 353 1747 
Q 353 2603 823 3093 
Q 1294 3584 2113 3584 
Q 2378 3584 2631 3529 
Q 2884 3475 3122 3366 
z
" id="DejaVuSans-63" transform="scale(0.015625)"/>
       <path d="M 603 4863 
L 1178 4863 
L 1178 0 
L 603 0 
L 603 4863 
z
" id="DejaVuSans-6c" transform="scale(0.015625)"/>
       <path d="M 581 4863 
L 1159 4863 
L 1159 1991 
L 2875 3500 
L 3609 3500 
L 1753 1863 
L 3688 0 
L 2938 0 
L 1159 1709 
L 1159 0 
L 581 0 
L 581 4863 
z
" id="DejaVuSans-6b" transform="scale(0.015625)"/>
       <path d="M 3513 2113 
L 3513 0 
L 2938 0 
L 2938 2094 
Q 2938 2591 2744 2837 
Q 2550 3084 2163 3084 
Q 1697 3084 1428 2787 
Q 1159 2491 1159 1978 
L 1159 0 
L 581 0 
L 581 4863 
L 1159 4863 
L 1159 2956 
Q 1366 3272 1645 3428 
Q 1925 3584 2291 3584 
Q 2894 3584 3203 3211 
Q 3513 2838 3513 2113 
z
" id="DejaVuSans-68" transform="scale(0.015625)"/>
       <path d="M 2906 2969 
L 2906 4863 
L 3481 4863 
L 3481 0 
L 2906 0 
L 2906 525 
Q 2725 213 2448 61 
Q 2172 -91 1784 -91 
Q 1150 -91 751 415 
Q 353 922 353 1747 
Q 353 2572 751 3078 
Q 1150 3584 1784 3584 
Q 2172 3584 2448 3432 
Q 2725 3281 2906 2969 
z
M 947 1747 
Q 947 1113 1208 752 
Q 1469 391 1925 391 
Q 2381 391 2643 752 
Q 2906 1113 2906 1747 
Q 2906 2381 2643 2742 
Q 2381 3103 1925 3103 
Q 1469 3103 1208 2742 
Q 947 2381 947 1747 
z
" id="DejaVuSans-64" transform="scale(0.015625)"/>
      </defs>
      <use xlink:href="#DejaVuSans-67"/>
      <use x="63.476562" xlink:href="#DejaVuSans-63"/>
      <use x="118.457031" xlink:href="#DejaVuSans-74"/>
      <use x="157.666016" xlink:href="#DejaVuSans-72"/>
      <use x="196.529297" xlink:href="#DejaVuSans-65"/>
      <use x="258.052734" xlink:href="#DejaVuSans-65"/>
      <use x="319.576172" xlink:href="#DejaVuSans-20"/>
      <use x="351.363281" xlink:href="#DejaVuSans-6c"/>
      <use x="379.146484" xlink:href="#DejaVuSans-69"/>
      <use x="406.929688" xlink:href="#DejaVuSans-6b"/>
      <use x="461.214844" xlink:href="#DejaVuSans-65"/>
      <use x="522.738281" xlink:href="#DejaVuSans-6c"/>
      <use x="550.521484" xlink:href="#DejaVuSans-69"/>
      <use x="578.304688" xlink:href="#DejaVuSans-68"/>
      <use x="641.683594" xlink:href="#DejaVuSans-6f"/>
      <use x="702.865234" xlink:href="#DejaVuSans-6f"/>
      <use x="764.046875" xlink:href="#DejaVuSans-64"/>
     </g>
    </g>
   </g>
   <g id="line2d_22">
    <defs>
     <path d="M 0 2 
C 0.530406 2 1.03916 1.789267 1.414214 1.414214 
C 1.789267 1.03916 2 0.530406 2 0 
C 2 -0.530406 1.789267 -1.03916 1.414214 -1.414214 
C 1.03916 -1.789267 0.530406 -2 0 -2 
C -0.530406 -2 -1.03916 -1.789267 -1.414214 -1.414214 
C -1.789267 -1.03916 -2 -0.530406 -2 0 
C -2 0.530406 -1.789267 1.03916 -1.414214 1.414214 
C -1.03916 1.789267 -0.530406 2 0 2 
z
" id="m74127bdadd" style="stroke:#000000;"/>
    </defs>
    <g>
     <use style="stroke:#000000;" x="60.277941" xlink:href="#m74127bdadd" y="18.093769"/>
     <use style="stroke:#000000;" x="62.055882" xlink:href="#m74127bdadd" y="33.585714"/>
     <use style="stroke:#000000;" x="63.833824" xlink:href="#m74127bdadd" y="33.585714"/>
     <use style="stroke:#000000;" x="65.611765" xlink:href="#m74127bdadd" y="33.585714"/>
     <use style="stroke:#000000;" x="67.389706" xlink:href="#m74127bdadd" y="35.885307"/>
     <use style="stroke:#000000;" x="69.167647" xlink:href="#m74127bdadd" y="35.885307"/>
     <use style="stroke:#000000;" x="70.945588" xlink:href="#m74127bdadd" y="37.790531"/>
     <use style="stroke:#000000;" x="72.723529" xlink:href="#m74127bdadd" y="38.100136"/>
     <use style="stroke:#000000;" x="74.501471" xlink:href="#m74127bdadd" y="38.100136"/>
     <use style="stroke:#000000;" x="76.279412" xlink:href="#m74127bdadd" y="38.100136"/>
     <use style="stroke:#000000;" x="78.057353" xlink:href="#m74127bdadd" y="38.100136"/>
     <use style="stroke:#000000;" x="79.835294" xlink:href="#m74127bdadd" y="39.036757"/>
     <use style="stroke:#000000;" x="81.613235" xlink:href="#m74127bdadd" y="39.036757"/>
     <use style="stroke:#000000;" x="83.391176" xlink:href="#m74127bdadd" y="39.036757"/>
     <use style="stroke:#000000;" x="85.169118" xlink:href="#m74127bdadd" y="39.036757"/>
     <use style="stroke:#000000;" x="86.947059" xlink:href="#m74127bdadd" y="42.965784"/>
     <use style="stroke:#000000;" x="88.725" xlink:href="#m74127bdadd" y="42.965784"/>
     <use style="stroke:#000000;" x="90.502941" xlink:href="#m74127bdadd" y="44.057239"/>
     <use style="stroke:#000000;" x="92.280882" xlink:href="#m74127bdadd" y="44.057239"/>
     <use style="stroke:#000000;" x="94.058824" xlink:href="#m74127bdadd" y="44.057239"/>
     <use style="stroke:#000000;" x="95.836765" xlink:href="#m74127bdadd" y="44.057239"/>
     <use style="stroke:#000000;" x="97.614706" xlink:href="#m74127bdadd" y="44.522465"/>
     <use style="stroke:#000000;" x="99.392647" xlink:href="#m74127bdadd" y="46.737294"/>
     <use style="stroke:#000000;" x="101.170588" xlink:href="#m74127bdadd" y="46.737294"/>
     <use style="stroke:#000000;" x="102.948529" xlink:href="#m74127bdadd" y="47.673915"/>
     <use style="stroke:#000000;" x="104.726471" xlink:href="#m74127bdadd" y="47.673915"/>
     <use style="stroke:#000000;" x="106.504412" xlink:href="#m74127bdadd" y="47.673915"/>
     <use style="stroke:#000000;" x="108.282353" xlink:href="#m74127bdadd" y="47.673915"/>
     <use style="stroke:#000000;" x="110.060294" xlink:href="#m74127bdadd" y="47.673915"/>
     <use style="stroke:#000000;" x="111.838235" xlink:href="#m74127bdadd" y="48.416828"/>
     <use style="stroke:#000000;" x="113.616176" xlink:href="#m74127bdadd" y="48.416828"/>
     <use style="stroke:#000000;" x="115.394118" xlink:href="#m74127bdadd" y="48.416828"/>
     <use style="stroke:#000000;" x="117.172059" xlink:href="#m74127bdadd" y="48.416828"/>
     <use style="stroke:#000000;" x="118.95" xlink:href="#m74127bdadd" y="48.416828"/>
     <use style="stroke:#000000;" x="120.727941" xlink:href="#m74127bdadd" y="48.416828"/>
     <use style="stroke:#000000;" x="122.505882" xlink:href="#m74127bdadd" y="48.796362"/>
     <use style="stroke:#000000;" x="124.283824" xlink:href="#m74127bdadd" y="48.796362"/>
     <use style="stroke:#000000;" x="126.061765" xlink:href="#m74127bdadd" y="49.508283"/>
     <use style="stroke:#000000;" x="127.839706" xlink:href="#m74127bdadd" y="49.508283"/>
     <use style="stroke:#000000;" x="129.617647" xlink:href="#m74127bdadd" y="49.508283"/>
     <use style="stroke:#000000;" x="131.395588" xlink:href="#m74127bdadd" y="49.508283"/>
     <use style="stroke:#000000;" x="133.173529" xlink:href="#m74127bdadd" y="49.508283"/>
     <use style="stroke:#000000;" x="134.951471" xlink:href="#m74127bdadd" y="51.532086"/>
     <use style="stroke:#000000;" x="136.729412" xlink:href="#m74127bdadd" y="51.532086"/>
     <use style="stroke:#000000;" x="138.507353" xlink:href="#m74127bdadd" y="53.592081"/>
     <use style="stroke:#000000;" x="140.285294" xlink:href="#m74127bdadd" y="53.592081"/>
     <use style="stroke:#000000;" x="142.063235" xlink:href="#m74127bdadd" y="53.592081"/>
     <use style="stroke:#000000;" x="143.841176" xlink:href="#m74127bdadd" y="53.592081"/>
     <use style="stroke:#000000;" x="145.619118" xlink:href="#m74127bdadd" y="54.683536"/>
     <use style="stroke:#000000;" x="147.397059" xlink:href="#m74127bdadd" y="54.683536"/>
     <use style="stroke:#000000;" x="149.175" xlink:href="#m74127bdadd" y="54.683536"/>
     <use style="stroke:#000000;" x="150.952941" xlink:href="#m74127bdadd" y="54.683536"/>
     <use style="stroke:#000000;" x="152.730882" xlink:href="#m74127bdadd" y="54.683536"/>
     <use style="stroke:#000000;" x="154.508824" xlink:href="#m74127bdadd" y="54.683536"/>
     <use style="stroke:#000000;" x="156.286765" xlink:href="#m74127bdadd" y="54.683536"/>
     <use style="stroke:#000000;" x="158.064706" xlink:href="#m74127bdadd" y="56.98313"/>
     <use style="stroke:#000000;" x="159.842647" xlink:href="#m74127bdadd" y="56.98313"/>
     <use style="stroke:#000000;" x="161.620588" xlink:href="#m74127bdadd" y="56.98313"/>
     <use style="stroke:#000000;" x="163.398529" xlink:href="#m74127bdadd" y="56.98313"/>
     <use style="stroke:#000000;" x="165.176471" xlink:href="#m74127bdadd" y="57.053986"/>
     <use style="stroke:#000000;" x="166.954412" xlink:href="#m74127bdadd" y="57.053986"/>
     <use style="stroke:#000000;" x="168.732353" xlink:href="#m74127bdadd" y="57.20783"/>
     <use style="stroke:#000000;" x="170.510294" xlink:href="#m74127bdadd" y="57.20783"/>
     <use style="stroke:#000000;" x="172.288235" xlink:href="#m74127bdadd" y="58.145441"/>
     <use style="stroke:#000000;" x="174.066176" xlink:href="#m74127bdadd" y="58.145441"/>
     <use style="stroke:#000000;" x="175.844118" xlink:href="#m74127bdadd" y="58.145441"/>
     <use style="stroke:#000000;" x="177.622059" xlink:href="#m74127bdadd" y="58.888354"/>
     <use style="stroke:#000000;" x="179.4" xlink:href="#m74127bdadd" y="59.043125"/>
     <use style="stroke:#000000;" x="181.177941" xlink:href="#m74127bdadd" y="59.043125"/>
     <use style="stroke:#000000;" x="182.955882" xlink:href="#m74127bdadd" y="59.043125"/>
     <use style="stroke:#000000;" x="184.733824" xlink:href="#m74127bdadd" y="59.043125"/>
     <use style="stroke:#000000;" x="186.511765" xlink:href="#m74127bdadd" y="59.043125"/>
     <use style="stroke:#000000;" x="188.289706" xlink:href="#m74127bdadd" y="59.043125"/>
     <use style="stroke:#000000;" x="190.067647" xlink:href="#m74127bdadd" y="59.043125"/>
     <use style="stroke:#000000;" x="191.845588" xlink:href="#m74127bdadd" y="59.043125"/>
     <use style="stroke:#000000;" x="193.623529" xlink:href="#m74127bdadd" y="59.113054"/>
     <use style="stroke:#000000;" x="195.401471" xlink:href="#m74127bdadd" y="59.422659"/>
     <use style="stroke:#000000;" x="197.179412" xlink:href="#m74127bdadd" y="60.13458"/>
     <use style="stroke:#000000;" x="198.957353" xlink:href="#m74127bdadd" y="60.13458"/>
     <use style="stroke:#000000;" x="200.735294" xlink:href="#m74127bdadd" y="60.13458"/>
     <use style="stroke:#000000;" x="202.513235" xlink:href="#m74127bdadd" y="60.13458"/>
     <use style="stroke:#000000;" x="204.291176" xlink:href="#m74127bdadd" y="60.13458"/>
     <use style="stroke:#000000;" x="206.069118" xlink:href="#m74127bdadd" y="60.13458"/>
     <use style="stroke:#000000;" x="207.847059" xlink:href="#m74127bdadd" y="60.13458"/>
     <use style="stroke:#000000;" x="209.625" xlink:href="#m74127bdadd" y="60.146228"/>
     <use style="stroke:#000000;" x="211.402941" xlink:href="#m74127bdadd" y="60.146228"/>
     <use style="stroke:#000000;" x="213.180882" xlink:href="#m74127bdadd" y="64.063607"/>
     <use style="stroke:#000000;" x="214.958824" xlink:href="#m74127bdadd" y="64.063607"/>
     <use style="stroke:#000000;" x="216.736765" xlink:href="#m74127bdadd" y="64.063607"/>
     <use style="stroke:#000000;" x="218.514706" xlink:href="#m74127bdadd" y="64.063607"/>
     <use style="stroke:#000000;" x="220.292647" xlink:href="#m74127bdadd" y="64.063607"/>
     <use style="stroke:#000000;" x="222.070588" xlink:href="#m74127bdadd" y="64.063607"/>
     <use style="stroke:#000000;" x="223.848529" xlink:href="#m74127bdadd" y="64.288307"/>
     <use style="stroke:#000000;" x="225.626471" xlink:href="#m74127bdadd" y="64.288307"/>
     <use style="stroke:#000000;" x="227.404412" xlink:href="#m74127bdadd" y="65.321481"/>
     <use style="stroke:#000000;" x="229.182353" xlink:href="#m74127bdadd" y="65.321481"/>
     <use style="stroke:#000000;" x="230.960294" xlink:href="#m74127bdadd" y="65.321481"/>
     <use style="stroke:#000000;" x="232.738235" xlink:href="#m74127bdadd" y="65.321481"/>
     <use style="stroke:#000000;" x="234.516176" xlink:href="#m74127bdadd" y="65.321481"/>
     <use style="stroke:#000000;" x="236.294118" xlink:href="#m74127bdadd" y="65.321481"/>
     <use style="stroke:#000000;" x="238.072059" xlink:href="#m74127bdadd" y="65.620288"/>
     <use style="stroke:#000000;" x="239.85" xlink:href="#m74127bdadd" y="65.844988"/>
     <use style="stroke:#000000;" x="241.627941" xlink:href="#m74127bdadd" y="67.525512"/>
     <use style="stroke:#000000;" x="243.405882" xlink:href="#m74127bdadd" y="67.621075"/>
     <use style="stroke:#000000;" x="245.183824" xlink:href="#m74127bdadd" y="67.680283"/>
     <use style="stroke:#000000;" x="246.961765" xlink:href="#m74127bdadd" y="67.680283"/>
     <use style="stroke:#000000;" x="248.739706" xlink:href="#m74127bdadd" y="68.771738"/>
     <use style="stroke:#000000;" x="250.517647" xlink:href="#m74127bdadd" y="68.771738"/>
     <use style="stroke:#000000;" x="252.295588" xlink:href="#m74127bdadd" y="68.771738"/>
     <use style="stroke:#000000;" x="254.073529" xlink:href="#m74127bdadd" y="69.514651"/>
     <use style="stroke:#000000;" x="255.851471" xlink:href="#m74127bdadd" y="69.514651"/>
     <use style="stroke:#000000;" x="257.629412" xlink:href="#m74127bdadd" y="69.514651"/>
     <use style="stroke:#000000;" x="259.407353" xlink:href="#m74127bdadd" y="69.514651"/>
     <use style="stroke:#000000;" x="261.185294" xlink:href="#m74127bdadd" y="69.514651"/>
     <use style="stroke:#000000;" x="262.963235" xlink:href="#m74127bdadd" y="69.514651"/>
     <use style="stroke:#000000;" x="264.741176" xlink:href="#m74127bdadd" y="69.514651"/>
     <use style="stroke:#000000;" x="266.519118" xlink:href="#m74127bdadd" y="69.514651"/>
     <use style="stroke:#000000;" x="268.297059" xlink:href="#m74127bdadd" y="69.514651"/>
     <use style="stroke:#000000;" x="270.075" xlink:href="#m74127bdadd" y="69.739351"/>
     <use style="stroke:#000000;" x="271.852941" xlink:href="#m74127bdadd" y="69.739351"/>
     <use style="stroke:#000000;" x="273.630882" xlink:href="#m74127bdadd" y="69.739351"/>
     <use style="stroke:#000000;" x="275.408824" xlink:href="#m74127bdadd" y="70.772525"/>
     <use style="stroke:#000000;" x="277.186765" xlink:href="#m74127bdadd" y="70.772525"/>
     <use style="stroke:#000000;" x="278.964706" xlink:href="#m74127bdadd" y="70.772525"/>
     <use style="stroke:#000000;" x="280.742647" xlink:href="#m74127bdadd" y="70.772525"/>
     <use style="stroke:#000000;" x="282.520588" xlink:href="#m74127bdadd" y="70.772525"/>
     <use style="stroke:#000000;" x="284.298529" xlink:href="#m74127bdadd" y="70.772525"/>
     <use style="stroke:#000000;" x="286.076471" xlink:href="#m74127bdadd" y="70.772525"/>
     <use style="stroke:#000000;" x="287.854412" xlink:href="#m74127bdadd" y="70.772525"/>
     <use style="stroke:#000000;" x="289.632353" xlink:href="#m74127bdadd" y="72.796328"/>
     <use style="stroke:#000000;" x="291.410294" xlink:href="#m74127bdadd" y="72.796328"/>
     <use style="stroke:#000000;" x="293.188235" xlink:href="#m74127bdadd" y="72.796328"/>
     <use style="stroke:#000000;" x="294.966176" xlink:href="#m74127bdadd" y="72.796328"/>
     <use style="stroke:#000000;" x="296.744118" xlink:href="#m74127bdadd" y="72.854609"/>
     <use style="stroke:#000000;" x="298.522059" xlink:href="#m74127bdadd" y="72.854609"/>
     <use style="stroke:#000000;" x="300.3" xlink:href="#m74127bdadd" y="74.689904"/>
     <use style="stroke:#000000;" x="302.077941" xlink:href="#m74127bdadd" y="74.689904"/>
     <use style="stroke:#000000;" x="303.855882" xlink:href="#m74127bdadd" y="74.689904"/>
     <use style="stroke:#000000;" x="305.633824" xlink:href="#m74127bdadd" y="74.689904"/>
     <use style="stroke:#000000;" x="307.411765" xlink:href="#m74127bdadd" y="74.689904"/>
     <use style="stroke:#000000;" x="309.189706" xlink:href="#m74127bdadd" y="74.689904"/>
     <use style="stroke:#000000;" x="310.967647" xlink:href="#m74127bdadd" y="74.759833"/>
     <use style="stroke:#000000;" x="312.745588" xlink:href="#m74127bdadd" y="74.914604"/>
     <use style="stroke:#000000;" x="314.523529" xlink:href="#m74127bdadd" y="75.947778"/>
     <use style="stroke:#000000;" x="316.301471" xlink:href="#m74127bdadd" y="75.947778"/>
     <use style="stroke:#000000;" x="318.079412" xlink:href="#m74127bdadd" y="75.947778"/>
     <use style="stroke:#000000;" x="319.857353" xlink:href="#m74127bdadd" y="75.947778"/>
     <use style="stroke:#000000;" x="321.635294" xlink:href="#m74127bdadd" y="75.947778"/>
     <use style="stroke:#000000;" x="323.413235" xlink:href="#m74127bdadd" y="78.151809"/>
     <use style="stroke:#000000;" x="325.191176" xlink:href="#m74127bdadd" y="78.151809"/>
     <use style="stroke:#000000;" x="326.969118" xlink:href="#m74127bdadd" y="78.151809"/>
     <use style="stroke:#000000;" x="328.747059" xlink:href="#m74127bdadd" y="78.151809"/>
     <use style="stroke:#000000;" x="330.525" xlink:href="#m74127bdadd" y="78.247372"/>
     <use style="stroke:#000000;" x="332.302941" xlink:href="#m74127bdadd" y="78.247372"/>
     <use style="stroke:#000000;" x="334.080882" xlink:href="#m74127bdadd" y="78.247372"/>
     <use style="stroke:#000000;" x="335.858824" xlink:href="#m74127bdadd" y="78.247372"/>
     <use style="stroke:#000000;" x="337.636765" xlink:href="#m74127bdadd" y="78.305653"/>
     <use style="stroke:#000000;" x="339.414706" xlink:href="#m74127bdadd" y="78.305653"/>
     <use style="stroke:#000000;" x="341.192647" xlink:href="#m74127bdadd" y="78.305653"/>
     <use style="stroke:#000000;" x="342.970588" xlink:href="#m74127bdadd" y="79.409683"/>
     <use style="stroke:#000000;" x="344.748529" xlink:href="#m74127bdadd" y="79.409683"/>
     <use style="stroke:#000000;" x="346.526471" xlink:href="#m74127bdadd" y="80.140947"/>
     <use style="stroke:#000000;" x="348.304412" xlink:href="#m74127bdadd" y="80.140947"/>
     <use style="stroke:#000000;" x="350.082353" xlink:href="#m74127bdadd" y="80.140947"/>
     <use style="stroke:#000000;" x="351.860294" xlink:href="#m74127bdadd" y="80.140947"/>
     <use style="stroke:#000000;" x="353.638235" xlink:href="#m74127bdadd" y="80.140947"/>
     <use style="stroke:#000000;" x="355.416176" xlink:href="#m74127bdadd" y="80.152596"/>
     <use style="stroke:#000000;" x="357.194118" xlink:href="#m74127bdadd" y="80.152596"/>
     <use style="stroke:#000000;" x="358.972059" xlink:href="#m74127bdadd" y="80.365647"/>
     <use style="stroke:#000000;" x="360.75" xlink:href="#m74127bdadd" y="81.398822"/>
     <use style="stroke:#000000;" x="362.527941" xlink:href="#m74127bdadd" y="81.398822"/>
     <use style="stroke:#000000;" x="364.305882" xlink:href="#m74127bdadd" y="81.398822"/>
     <use style="stroke:#000000;" x="366.083824" xlink:href="#m74127bdadd" y="85.327849"/>
     <use style="stroke:#000000;" x="367.861765" xlink:href="#m74127bdadd" y="85.327849"/>
     <use style="stroke:#000000;" x="369.639706" xlink:href="#m74127bdadd" y="85.327849"/>
     <use style="stroke:#000000;" x="371.417647" xlink:href="#m74127bdadd" y="85.327849"/>
     <use style="stroke:#000000;" x="373.195588" xlink:href="#m74127bdadd" y="85.327849"/>
     <use style="stroke:#000000;" x="374.973529" xlink:href="#m74127bdadd" y="85.327849"/>
     <use style="stroke:#000000;" x="376.751471" xlink:href="#m74127bdadd" y="85.38613"/>
     <use style="stroke:#000000;" x="378.529412" xlink:href="#m74127bdadd" y="85.38613"/>
     <use style="stroke:#000000;" x="380.307353" xlink:href="#m74127bdadd" y="85.38613"/>
     <use style="stroke:#000000;" x="382.085294" xlink:href="#m74127bdadd" y="86.765114"/>
     <use style="stroke:#000000;" x="383.863235" xlink:href="#m74127bdadd" y="86.765114"/>
     <use style="stroke:#000000;" x="385.641176" xlink:href="#m74127bdadd" y="86.88453"/>
     <use style="stroke:#000000;" x="387.419118" xlink:href="#m74127bdadd" y="88.778106"/>
     <use style="stroke:#000000;" x="389.197059" xlink:href="#m74127bdadd" y="88.943598"/>
     <use style="stroke:#000000;" x="390.975" xlink:href="#m74127bdadd" y="89.064708"/>
     <use style="stroke:#000000;" x="392.752941" xlink:href="#m74127bdadd" y="89.064708"/>
     <use style="stroke:#000000;" x="394.530882" xlink:href="#m74127bdadd" y="90.03598"/>
     <use style="stroke:#000000;" x="396.308824" xlink:href="#m74127bdadd" y="90.837173"/>
     <use style="stroke:#000000;" x="398.086765" xlink:href="#m74127bdadd" y="90.837173"/>
     <use style="stroke:#000000;" x="399.864706" xlink:href="#m74127bdadd" y="94.118851"/>
     <use style="stroke:#000000;" x="401.642647" xlink:href="#m74127bdadd" y="94.118851"/>
     <use style="stroke:#000000;" x="403.420588" xlink:href="#m74127bdadd" y="94.118851"/>
     <use style="stroke:#000000;" x="405.198529" xlink:href="#m74127bdadd" y="94.239961"/>
     <use style="stroke:#000000;" x="406.976471" xlink:href="#m74127bdadd" y="94.239961"/>
     <use style="stroke:#000000;" x="408.754412" xlink:href="#m74127bdadd" y="97.391411"/>
     <use style="stroke:#000000;" x="410.532353" xlink:href="#m74127bdadd" y="97.391411"/>
     <use style="stroke:#000000;" x="412.310294" xlink:href="#m74127bdadd" y="101.596228"/>
     <use style="stroke:#000000;" x="414.088235" xlink:href="#m74127bdadd" y="110.38723"/>
     <use style="stroke:#000000;" x="415.866176" xlink:href="#m74127bdadd" y="110.38723"/>
     <use style="stroke:#000000;" x="417.644118" xlink:href="#m74127bdadd" y="110.702325"/>
     <use style="stroke:#000000;" x="419.422059" xlink:href="#m74127bdadd" y="122.918751"/>
    </g>
   </g>
   <g id="patch_3">
    <path d="M 58.5 128.16 
L 58.5 17.28 
" style="fill:none;stroke:#000000;stroke-linecap:square;stroke-linejoin:miter;stroke-width:0.8;"/>
   </g>
   <g id="patch_4">
    <path d="M 421.2 128.16 
L 421.2 17.28 
" style="fill:none;stroke:#000000;stroke-linecap:square;stroke-linejoin:miter;stroke-width:0.8;"/>
   </g>
   <g id="patch_5">
    <path d="M 58.5 128.16 
L 421.2 128.16 
" style="fill:none;stroke:#000000;stroke-linecap:square;stroke-linejoin:miter;stroke-width:0.8;"/>
   </g>
   <g id="patch_6">
    <path d="M 58.5 17.28 
L 421.2 17.28 
" style="fill:none;stroke:#000000;stroke-linecap:square;stroke-linejoin:miter;stroke-width:0.8;"/>
   </g>
  </g>
 </g>
</svg>
