<?xml version="1.0" encoding="utf-8" standalone="no"?>
<!DOCTYPE svg PUBLIC "-//W3C//DTD SVG 1.1//EN"
  "http://www.w3.org/Graphics/SVG/1.1/DTD/svg11.dtd">
<svg height="144pt" version="1.1" viewBox="0 0 468 144" width="468pt" xmlns="http://www.w3.org/2000/svg" xmlns:xlink="http://www.w3.org/1999/xlink">
 <metadata>
  <rdf:RDF xmlns:cc="http://creativecommons.org/ns#" xmlns:dc="http://purl.org/dc/elements/1.1/" xmlns:rdf="http://www.w3.org/1999/02/22-rdf-syntax-ns#">
   <cc:Work>
    <dc:type rdf:resource="http://purl.org/dc/dcmitype/StillImage"/>
    <dc:date>2021-08-06T14:11:58.053405</dc:date>
    <dc:format>image/svg+xml</dc:format>
    <dc:creator>
     <cc:Agent>
      <dc:title>Matplotlib v3.4.2, https://matplotlib.org/</dc:title>
     </cc:Agent>
    </dc:creator>
   </cc:Work>
  </rdf:RDF>
 </metadata>
 <defs>
  <style type="text/css">*{stroke-linecap:butt;stroke-linejoin:round;}</style>
 </defs>
 <g id="figure_1">
  <g id="patch_1">
   <path d="M 0 144 
L 468 144 
L 468 0 
L 0 0 
z
" style="fill:#ffffff;"/>
  </g>
  <g id="axes_1">
   <g id="patch_2">
    <path d="M 58.5 128.16 
L 421.2 128.16 
L 421.2 17.28 
L 58.5 17.28 
z
" style="fill:#ffffff;"/>
   </g>
   <g id="matplotlib.axis_1">
    <g id="xtick_1">
     <g id="line2d_1">
      <defs>
       <path d="M 0 0 
L 0 3.5 
" id="m61c777602f" style="stroke:#000000;stroke-width:0.8;"/>
      </defs>
      <g>
       <use style="stroke:#000000;stroke-width:0.8;" x="60.24375" xlink:href="#m61c777602f" y="128.16"/>
      </g>
     </g>
     <g id="line2d_2">
      <defs>
       <path d="M 0 0 
L 0 -3.5 
" id="m07b333638f" style="stroke:#000000;stroke-width:0.8;"/>
      </defs>
      <g>
       <use style="stroke:#000000;stroke-width:0.8;" x="60.24375" xlink:href="#m07b333638f" y="17.28"/>
      </g>
     </g>
     <g id="text_1">
      <!-- 0 -->
      <g transform="translate(57.0625 142.758438)scale(0.1 -0.1)">
       <defs>
        <path d="M 2034 4250 
Q 1547 4250 1301 3770 
Q 1056 3291 1056 2328 
Q 1056 1369 1301 889 
Q 1547 409 2034 409 
Q 2525 409 2770 889 
Q 3016 1369 3016 2328 
Q 3016 3291 2770 3770 
Q 2525 4250 2034 4250 
z
M 2034 4750 
Q 2819 4750 3233 4129 
Q 3647 3509 3647 2328 
Q 3647 1150 3233 529 
Q 2819 -91 2034 -91 
Q 1250 -91 836 529 
Q 422 1150 422 2328 
Q 422 3509 836 4129 
Q 1250 4750 2034 4750 
z
" id="DejaVuSans-30" transform="scale(0.015625)"/>
       </defs>
       <use xlink:href="#DejaVuSans-30"/>
      </g>
     </g>
    </g>
    <g id="xtick_2">
     <g id="line2d_3">
      <g>
       <use style="stroke:#000000;stroke-width:0.8;" x="103.8375" xlink:href="#m61c777602f" y="128.16"/>
      </g>
     </g>
     <g id="line2d_4">
      <g>
       <use style="stroke:#000000;stroke-width:0.8;" x="103.8375" xlink:href="#m07b333638f" y="17.28"/>
      </g>
     </g>
     <g id="text_2">
      <!-- 25 -->
      <g transform="translate(97.475 142.758438)scale(0.1 -0.1)">
       <defs>
        <path d="M 1228 531 
L 3431 531 
L 3431 0 
L 469 0 
L 469 531 
Q 828 903 1448 1529 
Q 2069 2156 2228 2338 
Q 2531 2678 2651 2914 
Q 2772 3150 2772 3378 
Q 2772 3750 2511 3984 
Q 2250 4219 1831 4219 
Q 1534 4219 1204 4116 
Q 875 4013 500 3803 
L 500 4441 
Q 881 4594 1212 4672 
Q 1544 4750 1819 4750 
Q 2544 4750 2975 4387 
Q 3406 4025 3406 3419 
Q 3406 3131 3298 2873 
Q 3191 2616 2906 2266 
Q 2828 2175 2409 1742 
Q 1991 1309 1228 531 
z
" id="DejaVuSans-32" transform="scale(0.015625)"/>
        <path d="M 691 4666 
L 3169 4666 
L 3169 4134 
L 1269 4134 
L 1269 2991 
Q 1406 3038 1543 3061 
Q 1681 3084 1819 3084 
Q 2600 3084 3056 2656 
Q 3513 2228 3513 1497 
Q 3513 744 3044 326 
Q 2575 -91 1722 -91 
Q 1428 -91 1123 -41 
Q 819 9 494 109 
L 494 744 
Q 775 591 1075 516 
Q 1375 441 1709 441 
Q 2250 441 2565 725 
Q 2881 1009 2881 1497 
Q 2881 1984 2565 2268 
Q 2250 2553 1709 2553 
Q 1456 2553 1204 2497 
Q 953 2441 691 2322 
L 691 4666 
z
" id="DejaVuSans-35" transform="scale(0.015625)"/>
       </defs>
       <use xlink:href="#DejaVuSans-32"/>
       <use x="63.623047" xlink:href="#DejaVuSans-35"/>
      </g>
     </g>
    </g>
    <g id="xtick_3">
     <g id="line2d_5">
      <g>
       <use style="stroke:#000000;stroke-width:0.8;" x="147.43125" xlink:href="#m61c777602f" y="128.16"/>
      </g>
     </g>
     <g id="line2d_6">
      <g>
       <use style="stroke:#000000;stroke-width:0.8;" x="147.43125" xlink:href="#m07b333638f" y="17.28"/>
      </g>
     </g>
     <g id="text_3">
      <!-- 50 -->
      <g transform="translate(141.06875 142.758438)scale(0.1 -0.1)">
       <use xlink:href="#DejaVuSans-35"/>
       <use x="63.623047" xlink:href="#DejaVuSans-30"/>
      </g>
     </g>
    </g>
    <g id="xtick_4">
     <g id="line2d_7">
      <g>
       <use style="stroke:#000000;stroke-width:0.8;" x="191.025" xlink:href="#m61c777602f" y="128.16"/>
      </g>
     </g>
     <g id="line2d_8">
      <g>
       <use style="stroke:#000000;stroke-width:0.8;" x="191.025" xlink:href="#m07b333638f" y="17.28"/>
      </g>
     </g>
     <g id="text_4">
      <!-- 75 -->
      <g transform="translate(184.6625 142.758438)scale(0.1 -0.1)">
       <defs>
        <path d="M 525 4666 
L 3525 4666 
L 3525 4397 
L 1831 0 
L 1172 0 
L 2766 4134 
L 525 4134 
L 525 4666 
z
" id="DejaVuSans-37" transform="scale(0.015625)"/>
       </defs>
       <use xlink:href="#DejaVuSans-37"/>
       <use x="63.623047" xlink:href="#DejaVuSans-35"/>
      </g>
     </g>
    </g>
    <g id="xtick_5">
     <g id="line2d_9">
      <g>
       <use style="stroke:#000000;stroke-width:0.8;" x="234.61875" xlink:href="#m61c777602f" y="128.16"/>
      </g>
     </g>
     <g id="line2d_10">
      <g>
       <use style="stroke:#000000;stroke-width:0.8;" x="234.61875" xlink:href="#m07b333638f" y="17.28"/>
      </g>
     </g>
     <g id="text_5">
      <!-- 100 -->
      <g transform="translate(225.075 142.758438)scale(0.1 -0.1)">
       <defs>
        <path d="M 794 531 
L 1825 531 
L 1825 4091 
L 703 3866 
L 703 4441 
L 1819 4666 
L 2450 4666 
L 2450 531 
L 3481 531 
L 3481 0 
L 794 0 
L 794 531 
z
" id="DejaVuSans-31" transform="scale(0.015625)"/>
       </defs>
       <use xlink:href="#DejaVuSans-31"/>
       <use x="63.623047" xlink:href="#DejaVuSans-30"/>
       <use x="127.246094" xlink:href="#DejaVuSans-30"/>
      </g>
     </g>
    </g>
    <g id="xtick_6">
     <g id="line2d_11">
      <g>
       <use style="stroke:#000000;stroke-width:0.8;" x="278.2125" xlink:href="#m61c777602f" y="128.16"/>
      </g>
     </g>
     <g id="line2d_12">
      <g>
       <use style="stroke:#000000;stroke-width:0.8;" x="278.2125" xlink:href="#m07b333638f" y="17.28"/>
      </g>
     </g>
     <g id="text_6">
      <!-- 125 -->
      <g transform="translate(268.66875 142.758438)scale(0.1 -0.1)">
       <use xlink:href="#DejaVuSans-31"/>
       <use x="63.623047" xlink:href="#DejaVuSans-32"/>
       <use x="127.246094" xlink:href="#DejaVuSans-35"/>
      </g>
     </g>
    </g>
    <g id="xtick_7">
     <g id="line2d_13">
      <g>
       <use style="stroke:#000000;stroke-width:0.8;" x="321.80625" xlink:href="#m61c777602f" y="128.16"/>
      </g>
     </g>
     <g id="line2d_14">
      <g>
       <use style="stroke:#000000;stroke-width:0.8;" x="321.80625" xlink:href="#m07b333638f" y="17.28"/>
      </g>
     </g>
     <g id="text_7">
      <!-- 150 -->
      <g transform="translate(312.2625 142.758438)scale(0.1 -0.1)">
       <use xlink:href="#DejaVuSans-31"/>
       <use x="63.623047" xlink:href="#DejaVuSans-35"/>
       <use x="127.246094" xlink:href="#DejaVuSans-30"/>
      </g>
     </g>
    </g>
    <g id="xtick_8">
     <g id="line2d_15">
      <g>
       <use style="stroke:#000000;stroke-width:0.8;" x="365.4" xlink:href="#m61c777602f" y="128.16"/>
      </g>
     </g>
     <g id="line2d_16">
      <g>
       <use style="stroke:#000000;stroke-width:0.8;" x="365.4" xlink:href="#m07b333638f" y="17.28"/>
      </g>
     </g>
     <g id="text_8">
      <!-- 175 -->
      <g transform="translate(355.85625 142.758438)scale(0.1 -0.1)">
       <use xlink:href="#DejaVuSans-31"/>
       <use x="63.623047" xlink:href="#DejaVuSans-37"/>
       <use x="127.246094" xlink:href="#DejaVuSans-35"/>
      </g>
     </g>
    </g>
    <g id="xtick_9">
     <g id="line2d_17">
      <g>
       <use style="stroke:#000000;stroke-width:0.8;" x="408.99375" xlink:href="#m61c777602f" y="128.16"/>
      </g>
     </g>
     <g id="line2d_18">
      <g>
       <use style="stroke:#000000;stroke-width:0.8;" x="408.99375" xlink:href="#m07b333638f" y="17.28"/>
      </g>
     </g>
     <g id="text_9">
      <!-- 200 -->
      <g transform="translate(399.45 142.758438)scale(0.1 -0.1)">
       <use xlink:href="#DejaVuSans-32"/>
       <use x="63.623047" xlink:href="#DejaVuSans-30"/>
       <use x="127.246094" xlink:href="#DejaVuSans-30"/>
      </g>
     </g>
    </g>
    <g id="text_10">
     <!-- parsimony tree -->
     <g transform="translate(201.859375 156.436563)scale(0.1 -0.1)">
      <defs>
       <path d="M 1159 525 
L 1159 -1331 
L 581 -1331 
L 581 3500 
L 1159 3500 
L 1159 2969 
Q 1341 3281 1617 3432 
Q 1894 3584 2278 3584 
Q 2916 3584 3314 3078 
Q 3713 2572 3713 1747 
Q 3713 922 3314 415 
Q 2916 -91 2278 -91 
Q 1894 -91 1617 61 
Q 1341 213 1159 525 
z
M 3116 1747 
Q 3116 2381 2855 2742 
Q 2594 3103 2138 3103 
Q 1681 3103 1420 2742 
Q 1159 2381 1159 1747 
Q 1159 1113 1420 752 
Q 1681 391 2138 391 
Q 2594 391 2855 752 
Q 3116 1113 3116 1747 
z
" id="DejaVuSans-70" transform="scale(0.015625)"/>
       <path d="M 2194 1759 
Q 1497 1759 1228 1600 
Q 959 1441 959 1056 
Q 959 750 1161 570 
Q 1363 391 1709 391 
Q 2188 391 2477 730 
Q 2766 1069 2766 1631 
L 2766 1759 
L 2194 1759 
z
M 3341 1997 
L 3341 0 
L 2766 0 
L 2766 531 
Q 2569 213 2275 61 
Q 1981 -91 1556 -91 
Q 1019 -91 701 211 
Q 384 513 384 1019 
Q 384 1609 779 1909 
Q 1175 2209 1959 2209 
L 2766 2209 
L 2766 2266 
Q 2766 2663 2505 2880 
Q 2244 3097 1772 3097 
Q 1472 3097 1187 3025 
Q 903 2953 641 2809 
L 641 3341 
Q 956 3463 1253 3523 
Q 1550 3584 1831 3584 
Q 2591 3584 2966 3190 
Q 3341 2797 3341 1997 
z
" id="DejaVuSans-61" transform="scale(0.015625)"/>
       <path d="M 2631 2963 
Q 2534 3019 2420 3045 
Q 2306 3072 2169 3072 
Q 1681 3072 1420 2755 
Q 1159 2438 1159 1844 
L 1159 0 
L 581 0 
L 581 3500 
L 1159 3500 
L 1159 2956 
Q 1341 3275 1631 3429 
Q 1922 3584 2338 3584 
Q 2397 3584 2469 3576 
Q 2541 3569 2628 3553 
L 2631 2963 
z
" id="DejaVuSans-72" transform="scale(0.015625)"/>
       <path d="M 2834 3397 
L 2834 2853 
Q 2591 2978 2328 3040 
Q 2066 3103 1784 3103 
Q 1356 3103 1142 2972 
Q 928 2841 928 2578 
Q 928 2378 1081 2264 
Q 1234 2150 1697 2047 
L 1894 2003 
Q 2506 1872 2764 1633 
Q 3022 1394 3022 966 
Q 3022 478 2636 193 
Q 2250 -91 1575 -91 
Q 1294 -91 989 -36 
Q 684 19 347 128 
L 347 722 
Q 666 556 975 473 
Q 1284 391 1588 391 
Q 1994 391 2212 530 
Q 2431 669 2431 922 
Q 2431 1156 2273 1281 
Q 2116 1406 1581 1522 
L 1381 1569 
Q 847 1681 609 1914 
Q 372 2147 372 2553 
Q 372 3047 722 3315 
Q 1072 3584 1716 3584 
Q 2034 3584 2315 3537 
Q 2597 3491 2834 3397 
z
" id="DejaVuSans-73" transform="scale(0.015625)"/>
       <path d="M 603 3500 
L 1178 3500 
L 1178 0 
L 603 0 
L 603 3500 
z
M 603 4863 
L 1178 4863 
L 1178 4134 
L 603 4134 
L 603 4863 
z
" id="DejaVuSans-69" transform="scale(0.015625)"/>
       <path d="M 3328 2828 
Q 3544 3216 3844 3400 
Q 4144 3584 4550 3584 
Q 5097 3584 5394 3201 
Q 5691 2819 5691 2113 
L 5691 0 
L 5113 0 
L 5113 2094 
Q 5113 2597 4934 2840 
Q 4756 3084 4391 3084 
Q 3944 3084 3684 2787 
Q 3425 2491 3425 1978 
L 3425 0 
L 2847 0 
L 2847 2094 
Q 2847 2600 2669 2842 
Q 2491 3084 2119 3084 
Q 1678 3084 1418 2786 
Q 1159 2488 1159 1978 
L 1159 0 
L 581 0 
L 581 3500 
L 1159 3500 
L 1159 2956 
Q 1356 3278 1631 3431 
Q 1906 3584 2284 3584 
Q 2666 3584 2933 3390 
Q 3200 3197 3328 2828 
z
" id="DejaVuSans-6d" transform="scale(0.015625)"/>
       <path d="M 1959 3097 
Q 1497 3097 1228 2736 
Q 959 2375 959 1747 
Q 959 1119 1226 758 
Q 1494 397 1959 397 
Q 2419 397 2687 759 
Q 2956 1122 2956 1747 
Q 2956 2369 2687 2733 
Q 2419 3097 1959 3097 
z
M 1959 3584 
Q 2709 3584 3137 3096 
Q 3566 2609 3566 1747 
Q 3566 888 3137 398 
Q 2709 -91 1959 -91 
Q 1206 -91 779 398 
Q 353 888 353 1747 
Q 353 2609 779 3096 
Q 1206 3584 1959 3584 
z
" id="DejaVuSans-6f" transform="scale(0.015625)"/>
       <path d="M 3513 2113 
L 3513 0 
L 2938 0 
L 2938 2094 
Q 2938 2591 2744 2837 
Q 2550 3084 2163 3084 
Q 1697 3084 1428 2787 
Q 1159 2491 1159 1978 
L 1159 0 
L 581 0 
L 581 3500 
L 1159 3500 
L 1159 2956 
Q 1366 3272 1645 3428 
Q 1925 3584 2291 3584 
Q 2894 3584 3203 3211 
Q 3513 2838 3513 2113 
z
" id="DejaVuSans-6e" transform="scale(0.015625)"/>
       <path d="M 2059 -325 
Q 1816 -950 1584 -1140 
Q 1353 -1331 966 -1331 
L 506 -1331 
L 506 -850 
L 844 -850 
Q 1081 -850 1212 -737 
Q 1344 -625 1503 -206 
L 1606 56 
L 191 3500 
L 800 3500 
L 1894 763 
L 2988 3500 
L 3597 3500 
L 2059 -325 
z
" id="DejaVuSans-79" transform="scale(0.015625)"/>
       <path id="DejaVuSans-20" transform="scale(0.015625)"/>
       <path d="M 1172 4494 
L 1172 3500 
L 2356 3500 
L 2356 3053 
L 1172 3053 
L 1172 1153 
Q 1172 725 1289 603 
Q 1406 481 1766 481 
L 2356 481 
L 2356 0 
L 1766 0 
Q 1100 0 847 248 
Q 594 497 594 1153 
L 594 3053 
L 172 3053 
L 172 3500 
L 594 3500 
L 594 4494 
L 1172 4494 
z
" id="DejaVuSans-74" transform="scale(0.015625)"/>
       <path d="M 3597 1894 
L 3597 1613 
L 953 1613 
Q 991 1019 1311 708 
Q 1631 397 2203 397 
Q 2534 397 2845 478 
Q 3156 559 3463 722 
L 3463 178 
Q 3153 47 2828 -22 
Q 2503 -91 2169 -91 
Q 1331 -91 842 396 
Q 353 884 353 1716 
Q 353 2575 817 3079 
Q 1281 3584 2069 3584 
Q 2775 3584 3186 3129 
Q 3597 2675 3597 1894 
z
M 3022 2063 
Q 3016 2534 2758 2815 
Q 2500 3097 2075 3097 
Q 1594 3097 1305 2825 
Q 1016 2553 972 2059 
L 3022 2063 
z
" id="DejaVuSans-65" transform="scale(0.015625)"/>
      </defs>
      <use xlink:href="#DejaVuSans-70"/>
      <use x="63.476562" xlink:href="#DejaVuSans-61"/>
      <use x="124.755859" xlink:href="#DejaVuSans-72"/>
      <use x="165.869141" xlink:href="#DejaVuSans-73"/>
      <use x="217.96875" xlink:href="#DejaVuSans-69"/>
      <use x="245.751953" xlink:href="#DejaVuSans-6d"/>
      <use x="343.164062" xlink:href="#DejaVuSans-6f"/>
      <use x="404.345703" xlink:href="#DejaVuSans-6e"/>
      <use x="467.724609" xlink:href="#DejaVuSans-79"/>
      <use x="526.904297" xlink:href="#DejaVuSans-20"/>
      <use x="558.691406" xlink:href="#DejaVuSans-74"/>
      <use x="597.900391" xlink:href="#DejaVuSans-72"/>
      <use x="636.763672" xlink:href="#DejaVuSans-65"/>
      <use x="698.287109" xlink:href="#DejaVuSans-65"/>
     </g>
    </g>
   </g>
   <g id="matplotlib.axis_2">
    <g id="ytick_1">
     <g id="line2d_19">
      <defs>
       <path d="M 0 0 
L -3.5 0 
" id="m3fa9e9293a" style="stroke:#000000;stroke-width:0.8;"/>
      </defs>
      <g>
       <use style="stroke:#000000;stroke-width:0.8;" x="58.5" xlink:href="#m3fa9e9293a" y="87.935622"/>
      </g>
     </g>
     <g id="text_11">
      <!-- $\mathdefault{10^{-37}}$ -->
      <g transform="translate(23.6 91.734841)scale(0.1 -0.1)">
       <defs>
        <path d="M 678 2272 
L 4684 2272 
L 4684 1741 
L 678 1741 
L 678 2272 
z
" id="DejaVuSans-2212" transform="scale(0.015625)"/>
        <path d="M 2597 2516 
Q 3050 2419 3304 2112 
Q 3559 1806 3559 1356 
Q 3559 666 3084 287 
Q 2609 -91 1734 -91 
Q 1441 -91 1130 -33 
Q 819 25 488 141 
L 488 750 
Q 750 597 1062 519 
Q 1375 441 1716 441 
Q 2309 441 2620 675 
Q 2931 909 2931 1356 
Q 2931 1769 2642 2001 
Q 2353 2234 1838 2234 
L 1294 2234 
L 1294 2753 
L 1863 2753 
Q 2328 2753 2575 2939 
Q 2822 3125 2822 3475 
Q 2822 3834 2567 4026 
Q 2313 4219 1838 4219 
Q 1578 4219 1281 4162 
Q 984 4106 628 3988 
L 628 4550 
Q 988 4650 1302 4700 
Q 1616 4750 1894 4750 
Q 2613 4750 3031 4423 
Q 3450 4097 3450 3541 
Q 3450 3153 3228 2886 
Q 3006 2619 2597 2516 
z
" id="DejaVuSans-33" transform="scale(0.015625)"/>
       </defs>
       <use transform="translate(0 0.765625)" xlink:href="#DejaVuSans-31"/>
       <use transform="translate(63.623047 0.765625)" xlink:href="#DejaVuSans-30"/>
       <use transform="translate(128.203125 39.046875)scale(0.7)" xlink:href="#DejaVuSans-2212"/>
       <use transform="translate(186.855469 39.046875)scale(0.7)" xlink:href="#DejaVuSans-33"/>
       <use transform="translate(231.391602 39.046875)scale(0.7)" xlink:href="#DejaVuSans-37"/>
      </g>
     </g>
    </g>
    <g id="ytick_2">
     <g id="line2d_20">
      <g>
       <use style="stroke:#000000;stroke-width:0.8;" x="58.5" xlink:href="#m3fa9e9293a" y="43.055153"/>
      </g>
     </g>
     <g id="text_12">
      <!-- $\mathdefault{10^{-35}}$ -->
      <g transform="translate(23.6 46.854372)scale(0.1 -0.1)">
       <use transform="translate(0 0.765625)" xlink:href="#DejaVuSans-31"/>
       <use transform="translate(63.623047 0.765625)" xlink:href="#DejaVuSans-30"/>
       <use transform="translate(128.203125 39.046875)scale(0.7)" xlink:href="#DejaVuSans-2212"/>
       <use transform="translate(186.855469 39.046875)scale(0.7)" xlink:href="#DejaVuSans-33"/>
       <use transform="translate(231.391602 39.046875)scale(0.7)" xlink:href="#DejaVuSans-35"/>
      </g>
     </g>
    </g>
    <g id="text_13">
     <!-- gctree likelihood -->
     <g transform="translate(17.520312 114.097344)rotate(-90)scale(0.1 -0.1)">
      <defs>
       <path d="M 2906 1791 
Q 2906 2416 2648 2759 
Q 2391 3103 1925 3103 
Q 1463 3103 1205 2759 
Q 947 2416 947 1791 
Q 947 1169 1205 825 
Q 1463 481 1925 481 
Q 2391 481 2648 825 
Q 2906 1169 2906 1791 
z
M 3481 434 
Q 3481 -459 3084 -895 
Q 2688 -1331 1869 -1331 
Q 1566 -1331 1297 -1286 
Q 1028 -1241 775 -1147 
L 775 -588 
Q 1028 -725 1275 -790 
Q 1522 -856 1778 -856 
Q 2344 -856 2625 -561 
Q 2906 -266 2906 331 
L 2906 616 
Q 2728 306 2450 153 
Q 2172 0 1784 0 
Q 1141 0 747 490 
Q 353 981 353 1791 
Q 353 2603 747 3093 
Q 1141 3584 1784 3584 
Q 2172 3584 2450 3431 
Q 2728 3278 2906 2969 
L 2906 3500 
L 3481 3500 
L 3481 434 
z
" id="DejaVuSans-67" transform="scale(0.015625)"/>
       <path d="M 3122 3366 
L 3122 2828 
Q 2878 2963 2633 3030 
Q 2388 3097 2138 3097 
Q 1578 3097 1268 2742 
Q 959 2388 959 1747 
Q 959 1106 1268 751 
Q 1578 397 2138 397 
Q 2388 397 2633 464 
Q 2878 531 3122 666 
L 3122 134 
Q 2881 22 2623 -34 
Q 2366 -91 2075 -91 
Q 1284 -91 818 406 
Q 353 903 353 1747 
Q 353 2603 823 3093 
Q 1294 3584 2113 3584 
Q 2378 3584 2631 3529 
Q 2884 3475 3122 3366 
z
" id="DejaVuSans-63" transform="scale(0.015625)"/>
       <path d="M 603 4863 
L 1178 4863 
L 1178 0 
L 603 0 
L 603 4863 
z
" id="DejaVuSans-6c" transform="scale(0.015625)"/>
       <path d="M 581 4863 
L 1159 4863 
L 1159 1991 
L 2875 3500 
L 3609 3500 
L 1753 1863 
L 3688 0 
L 2938 0 
L 1159 1709 
L 1159 0 
L 581 0 
L 581 4863 
z
" id="DejaVuSans-6b" transform="scale(0.015625)"/>
       <path d="M 3513 2113 
L 3513 0 
L 2938 0 
L 2938 2094 
Q 2938 2591 2744 2837 
Q 2550 3084 2163 3084 
Q 1697 3084 1428 2787 
Q 1159 2491 1159 1978 
L 1159 0 
L 581 0 
L 581 4863 
L 1159 4863 
L 1159 2956 
Q 1366 3272 1645 3428 
Q 1925 3584 2291 3584 
Q 2894 3584 3203 3211 
Q 3513 2838 3513 2113 
z
" id="DejaVuSans-68" transform="scale(0.015625)"/>
       <path d="M 2906 2969 
L 2906 4863 
L 3481 4863 
L 3481 0 
L 2906 0 
L 2906 525 
Q 2725 213 2448 61 
Q 2172 -91 1784 -91 
Q 1150 -91 751 415 
Q 353 922 353 1747 
Q 353 2572 751 3078 
Q 1150 3584 1784 3584 
Q 2172 3584 2448 3432 
Q 2725 3281 2906 2969 
z
M 947 1747 
Q 947 1113 1208 752 
Q 1469 391 1925 391 
Q 2381 391 2643 752 
Q 2906 1113 2906 1747 
Q 2906 2381 2643 2742 
Q 2381 3103 1925 3103 
Q 1469 3103 1208 2742 
Q 947 2381 947 1747 
z
" id="DejaVuSans-64" transform="scale(0.015625)"/>
      </defs>
      <use xlink:href="#DejaVuSans-67"/>
      <use x="63.476562" xlink:href="#DejaVuSans-63"/>
      <use x="118.457031" xlink:href="#DejaVuSans-74"/>
      <use x="157.666016" xlink:href="#DejaVuSans-72"/>
      <use x="196.529297" xlink:href="#DejaVuSans-65"/>
      <use x="258.052734" xlink:href="#DejaVuSans-65"/>
      <use x="319.576172" xlink:href="#DejaVuSans-20"/>
      <use x="351.363281" xlink:href="#DejaVuSans-6c"/>
      <use x="379.146484" xlink:href="#DejaVuSans-69"/>
      <use x="406.929688" xlink:href="#DejaVuSans-6b"/>
      <use x="461.214844" xlink:href="#DejaVuSans-65"/>
      <use x="522.738281" xlink:href="#DejaVuSans-6c"/>
      <use x="550.521484" xlink:href="#DejaVuSans-69"/>
      <use x="578.304688" xlink:href="#DejaVuSans-68"/>
      <use x="641.683594" xlink:href="#DejaVuSans-6f"/>
      <use x="702.865234" xlink:href="#DejaVuSans-6f"/>
      <use x="764.046875" xlink:href="#DejaVuSans-64"/>
     </g>
    </g>
   </g>
   <g id="line2d_21">
    <defs>
     <path d="M 0 2 
C 0.530406 2 1.03916 1.789267 1.414214 1.414214 
C 1.789267 1.03916 2 0.530406 2 0 
C 2 -0.530406 1.789267 -1.03916 1.414214 -1.414214 
C 1.03916 -1.789267 0.530406 -2 0 -2 
C -0.530406 -2 -1.03916 -1.789267 -1.414214 -1.414214 
C -1.789267 -1.03916 -2 -0.530406 -2 0 
C -2 0.530406 -1.789267 1.03916 -1.414214 1.414214 
C -1.03916 1.789267 -0.530406 2 0 2 
z
" id="me9eb1a0a5e" style="stroke:#000000;"/>
    </defs>
    <g>
     <use style="stroke:#000000;" x="60.24375" xlink:href="#me9eb1a0a5e" y="18.208862"/>
     <use style="stroke:#000000;" x="61.9875" xlink:href="#me9eb1a0a5e" y="35.891863"/>
     <use style="stroke:#000000;" x="63.73125" xlink:href="#me9eb1a0a5e" y="35.891863"/>
     <use style="stroke:#000000;" x="65.475" xlink:href="#me9eb1a0a5e" y="35.891863"/>
     <use style="stroke:#000000;" x="67.21875" xlink:href="#me9eb1a0a5e" y="38.516693"/>
     <use style="stroke:#000000;" x="68.9625" xlink:href="#me9eb1a0a5e" y="38.516693"/>
     <use style="stroke:#000000;" x="70.70625" xlink:href="#me9eb1a0a5e" y="40.691377"/>
     <use style="stroke:#000000;" x="72.45" xlink:href="#me9eb1a0a5e" y="40.714436"/>
     <use style="stroke:#000000;" x="74.19375" xlink:href="#me9eb1a0a5e" y="40.714436"/>
     <use style="stroke:#000000;" x="75.9375" xlink:href="#me9eb1a0a5e" y="40.714436"/>
     <use style="stroke:#000000;" x="77.68125" xlink:href="#me9eb1a0a5e" y="40.714436"/>
     <use style="stroke:#000000;" x="79.425" xlink:href="#me9eb1a0a5e" y="40.714436"/>
     <use style="stroke:#000000;" x="81.16875" xlink:href="#me9eb1a0a5e" y="41.783526"/>
     <use style="stroke:#000000;" x="82.9125" xlink:href="#me9eb1a0a5e" y="41.783526"/>
     <use style="stroke:#000000;" x="84.65625" xlink:href="#me9eb1a0a5e" y="41.783526"/>
     <use style="stroke:#000000;" x="86.4" xlink:href="#me9eb1a0a5e" y="41.783526"/>
     <use style="stroke:#000000;" x="88.14375" xlink:href="#me9eb1a0a5e" y="46.598576"/>
     <use style="stroke:#000000;" x="89.8875" xlink:href="#me9eb1a0a5e" y="46.598576"/>
     <use style="stroke:#000000;" x="91.63125" xlink:href="#me9eb1a0a5e" y="47.844398"/>
     <use style="stroke:#000000;" x="93.375" xlink:href="#me9eb1a0a5e" y="47.844398"/>
     <use style="stroke:#000000;" x="95.11875" xlink:href="#me9eb1a0a5e" y="47.844398"/>
     <use style="stroke:#000000;" x="96.8625" xlink:href="#me9eb1a0a5e" y="47.844398"/>
     <use style="stroke:#000000;" x="98.60625" xlink:href="#me9eb1a0a5e" y="48.375422"/>
     <use style="stroke:#000000;" x="100.35" xlink:href="#me9eb1a0a5e" y="50.573165"/>
     <use style="stroke:#000000;" x="102.09375" xlink:href="#me9eb1a0a5e" y="50.573165"/>
     <use style="stroke:#000000;" x="103.8375" xlink:href="#me9eb1a0a5e" y="51.642254"/>
     <use style="stroke:#000000;" x="105.58125" xlink:href="#me9eb1a0a5e" y="51.642254"/>
     <use style="stroke:#000000;" x="107.325" xlink:href="#me9eb1a0a5e" y="51.642254"/>
     <use style="stroke:#000000;" x="109.06875" xlink:href="#me9eb1a0a5e" y="51.642254"/>
     <use style="stroke:#000000;" x="110.8125" xlink:href="#me9eb1a0a5e" y="51.642254"/>
     <use style="stroke:#000000;" x="112.55625" xlink:href="#me9eb1a0a5e" y="52.490238"/>
     <use style="stroke:#000000;" x="114.3" xlink:href="#me9eb1a0a5e" y="52.490238"/>
     <use style="stroke:#000000;" x="116.04375" xlink:href="#me9eb1a0a5e" y="52.490238"/>
     <use style="stroke:#000000;" x="117.7875" xlink:href="#me9eb1a0a5e" y="52.490238"/>
     <use style="stroke:#000000;" x="119.53125" xlink:href="#me9eb1a0a5e" y="52.490238"/>
     <use style="stroke:#000000;" x="121.275" xlink:href="#me9eb1a0a5e" y="52.490238"/>
     <use style="stroke:#000000;" x="123.01875" xlink:href="#me9eb1a0a5e" y="52.923451"/>
     <use style="stroke:#000000;" x="124.7625" xlink:href="#me9eb1a0a5e" y="52.923451"/>
     <use style="stroke:#000000;" x="126.50625" xlink:href="#me9eb1a0a5e" y="53.73606"/>
     <use style="stroke:#000000;" x="128.25" xlink:href="#me9eb1a0a5e" y="53.73606"/>
     <use style="stroke:#000000;" x="129.99375" xlink:href="#me9eb1a0a5e" y="53.73606"/>
     <use style="stroke:#000000;" x="131.7375" xlink:href="#me9eb1a0a5e" y="53.73606"/>
     <use style="stroke:#000000;" x="133.48125" xlink:href="#me9eb1a0a5e" y="53.73606"/>
     <use style="stroke:#000000;" x="135.225" xlink:href="#me9eb1a0a5e" y="53.73606"/>
     <use style="stroke:#000000;" x="136.96875" xlink:href="#me9eb1a0a5e" y="56.376428"/>
     <use style="stroke:#000000;" x="138.7125" xlink:href="#me9eb1a0a5e" y="56.376428"/>
     <use style="stroke:#000000;" x="140.45625" xlink:href="#me9eb1a0a5e" y="58.397438"/>
     <use style="stroke:#000000;" x="142.2" xlink:href="#me9eb1a0a5e" y="58.397438"/>
     <use style="stroke:#000000;" x="143.94375" xlink:href="#me9eb1a0a5e" y="58.397438"/>
     <use style="stroke:#000000;" x="145.6875" xlink:href="#me9eb1a0a5e" y="58.397438"/>
     <use style="stroke:#000000;" x="147.43125" xlink:href="#me9eb1a0a5e" y="59.64326"/>
     <use style="stroke:#000000;" x="149.175" xlink:href="#me9eb1a0a5e" y="59.64326"/>
     <use style="stroke:#000000;" x="150.91875" xlink:href="#me9eb1a0a5e" y="59.64326"/>
     <use style="stroke:#000000;" x="152.6625" xlink:href="#me9eb1a0a5e" y="59.64326"/>
     <use style="stroke:#000000;" x="154.40625" xlink:href="#me9eb1a0a5e" y="59.64326"/>
     <use style="stroke:#000000;" x="156.15" xlink:href="#me9eb1a0a5e" y="59.64326"/>
     <use style="stroke:#000000;" x="157.89375" xlink:href="#me9eb1a0a5e" y="59.64326"/>
     <use style="stroke:#000000;" x="159.6375" xlink:href="#me9eb1a0a5e" y="59.64326"/>
     <use style="stroke:#000000;" x="161.38125" xlink:href="#me9eb1a0a5e" y="62.26809"/>
     <use style="stroke:#000000;" x="163.125" xlink:href="#me9eb1a0a5e" y="62.26809"/>
     <use style="stroke:#000000;" x="164.86875" xlink:href="#me9eb1a0a5e" y="62.26809"/>
     <use style="stroke:#000000;" x="166.6125" xlink:href="#me9eb1a0a5e" y="62.26809"/>
     <use style="stroke:#000000;" x="168.35625" xlink:href="#me9eb1a0a5e" y="62.348967"/>
     <use style="stroke:#000000;" x="170.1" xlink:href="#me9eb1a0a5e" y="62.348967"/>
     <use style="stroke:#000000;" x="171.84375" xlink:href="#me9eb1a0a5e" y="62.52457"/>
     <use style="stroke:#000000;" x="173.5875" xlink:href="#me9eb1a0a5e" y="62.52457"/>
     <use style="stroke:#000000;" x="175.33125" xlink:href="#me9eb1a0a5e" y="63.594789"/>
     <use style="stroke:#000000;" x="177.075" xlink:href="#me9eb1a0a5e" y="63.594789"/>
     <use style="stroke:#000000;" x="178.81875" xlink:href="#me9eb1a0a5e" y="63.594789"/>
     <use style="stroke:#000000;" x="180.5625" xlink:href="#me9eb1a0a5e" y="64.2891"/>
     <use style="stroke:#000000;" x="182.30625" xlink:href="#me9eb1a0a5e" y="64.2891"/>
     <use style="stroke:#000000;" x="184.05" xlink:href="#me9eb1a0a5e" y="64.2891"/>
     <use style="stroke:#000000;" x="185.79375" xlink:href="#me9eb1a0a5e" y="64.2891"/>
     <use style="stroke:#000000;" x="187.5375" xlink:href="#me9eb1a0a5e" y="64.2891"/>
     <use style="stroke:#000000;" x="189.28125" xlink:href="#me9eb1a0a5e" y="64.2891"/>
     <use style="stroke:#000000;" x="191.025" xlink:href="#me9eb1a0a5e" y="64.2891"/>
     <use style="stroke:#000000;" x="192.76875" xlink:href="#me9eb1a0a5e" y="64.2891"/>
     <use style="stroke:#000000;" x="194.5125" xlink:href="#me9eb1a0a5e" y="64.442773"/>
     <use style="stroke:#000000;" x="196.25625" xlink:href="#me9eb1a0a5e" y="64.699253"/>
     <use style="stroke:#000000;" x="198" xlink:href="#me9eb1a0a5e" y="64.722312"/>
     <use style="stroke:#000000;" x="199.74375" xlink:href="#me9eb1a0a5e" y="65.534922"/>
     <use style="stroke:#000000;" x="201.4875" xlink:href="#me9eb1a0a5e" y="65.534922"/>
     <use style="stroke:#000000;" x="203.23125" xlink:href="#me9eb1a0a5e" y="65.534922"/>
     <use style="stroke:#000000;" x="204.975" xlink:href="#me9eb1a0a5e" y="65.534922"/>
     <use style="stroke:#000000;" x="206.71875" xlink:href="#me9eb1a0a5e" y="65.534922"/>
     <use style="stroke:#000000;" x="208.4625" xlink:href="#me9eb1a0a5e" y="65.534922"/>
     <use style="stroke:#000000;" x="210.20625" xlink:href="#me9eb1a0a5e" y="65.534922"/>
     <use style="stroke:#000000;" x="211.95" xlink:href="#me9eb1a0a5e" y="65.534922"/>
     <use style="stroke:#000000;" x="213.69375" xlink:href="#me9eb1a0a5e" y="65.878551"/>
     <use style="stroke:#000000;" x="215.4375" xlink:href="#me9eb1a0a5e" y="65.878551"/>
     <use style="stroke:#000000;" x="217.18125" xlink:href="#me9eb1a0a5e" y="70.349973"/>
     <use style="stroke:#000000;" x="218.925" xlink:href="#me9eb1a0a5e" y="70.349973"/>
     <use style="stroke:#000000;" x="220.66875" xlink:href="#me9eb1a0a5e" y="70.349973"/>
     <use style="stroke:#000000;" x="222.4125" xlink:href="#me9eb1a0a5e" y="70.349973"/>
     <use style="stroke:#000000;" x="224.15625" xlink:href="#me9eb1a0a5e" y="70.349973"/>
     <use style="stroke:#000000;" x="225.9" xlink:href="#me9eb1a0a5e" y="70.349973"/>
     <use style="stroke:#000000;" x="227.64375" xlink:href="#me9eb1a0a5e" y="70.606453"/>
     <use style="stroke:#000000;" x="229.3875" xlink:href="#me9eb1a0a5e" y="70.606453"/>
     <use style="stroke:#000000;" x="231.13125" xlink:href="#me9eb1a0a5e" y="71.785751"/>
     <use style="stroke:#000000;" x="232.875" xlink:href="#me9eb1a0a5e" y="71.785751"/>
     <use style="stroke:#000000;" x="234.61875" xlink:href="#me9eb1a0a5e" y="71.785751"/>
     <use style="stroke:#000000;" x="236.3625" xlink:href="#me9eb1a0a5e" y="71.785751"/>
     <use style="stroke:#000000;" x="238.10625" xlink:href="#me9eb1a0a5e" y="71.785751"/>
     <use style="stroke:#000000;" x="239.85" xlink:href="#me9eb1a0a5e" y="72.126818"/>
     <use style="stroke:#000000;" x="241.59375" xlink:href="#me9eb1a0a5e" y="72.383298"/>
     <use style="stroke:#000000;" x="243.3375" xlink:href="#me9eb1a0a5e" y="74.147829"/>
     <use style="stroke:#000000;" x="245.08125" xlink:href="#me9eb1a0a5e" y="74.147829"/>
     <use style="stroke:#000000;" x="246.825" xlink:href="#me9eb1a0a5e" y="74.301502"/>
     <use style="stroke:#000000;" x="248.56875" xlink:href="#me9eb1a0a5e" y="74.410581"/>
     <use style="stroke:#000000;" x="250.3125" xlink:href="#me9eb1a0a5e" y="75.393651"/>
     <use style="stroke:#000000;" x="252.05625" xlink:href="#me9eb1a0a5e" y="75.393651"/>
     <use style="stroke:#000000;" x="253.8" xlink:href="#me9eb1a0a5e" y="75.393651"/>
     <use style="stroke:#000000;" x="255.54375" xlink:href="#me9eb1a0a5e" y="76.241635"/>
     <use style="stroke:#000000;" x="257.2875" xlink:href="#me9eb1a0a5e" y="76.241635"/>
     <use style="stroke:#000000;" x="259.03125" xlink:href="#me9eb1a0a5e" y="76.241635"/>
     <use style="stroke:#000000;" x="260.775" xlink:href="#me9eb1a0a5e" y="76.241635"/>
     <use style="stroke:#000000;" x="262.51875" xlink:href="#me9eb1a0a5e" y="76.241635"/>
     <use style="stroke:#000000;" x="264.2625" xlink:href="#me9eb1a0a5e" y="76.241635"/>
     <use style="stroke:#000000;" x="266.00625" xlink:href="#me9eb1a0a5e" y="76.241635"/>
     <use style="stroke:#000000;" x="267.75" xlink:href="#me9eb1a0a5e" y="76.241635"/>
     <use style="stroke:#000000;" x="269.49375" xlink:href="#me9eb1a0a5e" y="76.241635"/>
     <use style="stroke:#000000;" x="271.2375" xlink:href="#me9eb1a0a5e" y="76.498115"/>
     <use style="stroke:#000000;" x="272.98125" xlink:href="#me9eb1a0a5e" y="76.498115"/>
     <use style="stroke:#000000;" x="274.725" xlink:href="#me9eb1a0a5e" y="76.498115"/>
     <use style="stroke:#000000;" x="276.46875" xlink:href="#me9eb1a0a5e" y="77.677413"/>
     <use style="stroke:#000000;" x="278.2125" xlink:href="#me9eb1a0a5e" y="77.677413"/>
     <use style="stroke:#000000;" x="279.95625" xlink:href="#me9eb1a0a5e" y="77.677413"/>
     <use style="stroke:#000000;" x="281.7" xlink:href="#me9eb1a0a5e" y="77.677413"/>
     <use style="stroke:#000000;" x="283.44375" xlink:href="#me9eb1a0a5e" y="77.677413"/>
     <use style="stroke:#000000;" x="285.1875" xlink:href="#me9eb1a0a5e" y="77.677413"/>
     <use style="stroke:#000000;" x="286.93125" xlink:href="#me9eb1a0a5e" y="77.677413"/>
     <use style="stroke:#000000;" x="288.675" xlink:href="#me9eb1a0a5e" y="77.677413"/>
     <use style="stroke:#000000;" x="290.41875" xlink:href="#me9eb1a0a5e" y="80.31778"/>
     <use style="stroke:#000000;" x="292.1625" xlink:href="#me9eb1a0a5e" y="80.31778"/>
     <use style="stroke:#000000;" x="293.90625" xlink:href="#me9eb1a0a5e" y="80.31778"/>
     <use style="stroke:#000000;" x="295.65" xlink:href="#me9eb1a0a5e" y="80.31778"/>
     <use style="stroke:#000000;" x="297.39375" xlink:href="#me9eb1a0a5e" y="80.384304"/>
     <use style="stroke:#000000;" x="299.1375" xlink:href="#me9eb1a0a5e" y="80.384304"/>
     <use style="stroke:#000000;" x="300.88125" xlink:href="#me9eb1a0a5e" y="82.148834"/>
     <use style="stroke:#000000;" x="302.625" xlink:href="#me9eb1a0a5e" y="82.148834"/>
     <use style="stroke:#000000;" x="304.36875" xlink:href="#me9eb1a0a5e" y="82.148834"/>
     <use style="stroke:#000000;" x="306.1125" xlink:href="#me9eb1a0a5e" y="82.148834"/>
     <use style="stroke:#000000;" x="307.85625" xlink:href="#me9eb1a0a5e" y="82.148834"/>
     <use style="stroke:#000000;" x="309.6" xlink:href="#me9eb1a0a5e" y="82.148834"/>
     <use style="stroke:#000000;" x="311.34375" xlink:href="#me9eb1a0a5e" y="82.148834"/>
     <use style="stroke:#000000;" x="313.0875" xlink:href="#me9eb1a0a5e" y="82.405314"/>
     <use style="stroke:#000000;" x="314.83125" xlink:href="#me9eb1a0a5e" y="82.558987"/>
     <use style="stroke:#000000;" x="316.575" xlink:href="#me9eb1a0a5e" y="83.584612"/>
     <use style="stroke:#000000;" x="318.31875" xlink:href="#me9eb1a0a5e" y="83.584612"/>
     <use style="stroke:#000000;" x="320.0625" xlink:href="#me9eb1a0a5e" y="83.584612"/>
     <use style="stroke:#000000;" x="321.80625" xlink:href="#me9eb1a0a5e" y="83.584612"/>
     <use style="stroke:#000000;" x="323.55" xlink:href="#me9eb1a0a5e" y="83.584612"/>
     <use style="stroke:#000000;" x="325.29375" xlink:href="#me9eb1a0a5e" y="86.100364"/>
     <use style="stroke:#000000;" x="327.0375" xlink:href="#me9eb1a0a5e" y="86.100364"/>
     <use style="stroke:#000000;" x="328.78125" xlink:href="#me9eb1a0a5e" y="86.100364"/>
     <use style="stroke:#000000;" x="330.525" xlink:href="#me9eb1a0a5e" y="86.100364"/>
     <use style="stroke:#000000;" x="332.26875" xlink:href="#me9eb1a0a5e" y="86.209442"/>
     <use style="stroke:#000000;" x="334.0125" xlink:href="#me9eb1a0a5e" y="86.209442"/>
     <use style="stroke:#000000;" x="335.75625" xlink:href="#me9eb1a0a5e" y="86.209442"/>
     <use style="stroke:#000000;" x="337.5" xlink:href="#me9eb1a0a5e" y="86.209442"/>
     <use style="stroke:#000000;" x="339.24375" xlink:href="#me9eb1a0a5e" y="86.275966"/>
     <use style="stroke:#000000;" x="340.9875" xlink:href="#me9eb1a0a5e" y="86.275966"/>
     <use style="stroke:#000000;" x="342.73125" xlink:href="#me9eb1a0a5e" y="86.275966"/>
     <use style="stroke:#000000;" x="344.475" xlink:href="#me9eb1a0a5e" y="86.275966"/>
     <use style="stroke:#000000;" x="346.21875" xlink:href="#me9eb1a0a5e" y="87.536142"/>
     <use style="stroke:#000000;" x="347.9625" xlink:href="#me9eb1a0a5e" y="87.536142"/>
     <use style="stroke:#000000;" x="349.70625" xlink:href="#me9eb1a0a5e" y="88.040497"/>
     <use style="stroke:#000000;" x="351.45" xlink:href="#me9eb1a0a5e" y="88.040497"/>
     <use style="stroke:#000000;" x="353.19375" xlink:href="#me9eb1a0a5e" y="88.040497"/>
     <use style="stroke:#000000;" x="354.9375" xlink:href="#me9eb1a0a5e" y="88.040497"/>
     <use style="stroke:#000000;" x="356.68125" xlink:href="#me9eb1a0a5e" y="88.296976"/>
     <use style="stroke:#000000;" x="358.425" xlink:href="#me9eb1a0a5e" y="88.384126"/>
     <use style="stroke:#000000;" x="360.16875" xlink:href="#me9eb1a0a5e" y="88.384126"/>
     <use style="stroke:#000000;" x="361.9125" xlink:href="#me9eb1a0a5e" y="89.476275"/>
     <use style="stroke:#000000;" x="363.65625" xlink:href="#me9eb1a0a5e" y="89.476275"/>
     <use style="stroke:#000000;" x="365.4" xlink:href="#me9eb1a0a5e" y="89.476275"/>
     <use style="stroke:#000000;" x="367.14375" xlink:href="#me9eb1a0a5e" y="94.291325"/>
     <use style="stroke:#000000;" x="368.8875" xlink:href="#me9eb1a0a5e" y="94.291325"/>
     <use style="stroke:#000000;" x="370.63125" xlink:href="#me9eb1a0a5e" y="94.291325"/>
     <use style="stroke:#000000;" x="372.375" xlink:href="#me9eb1a0a5e" y="94.291325"/>
     <use style="stroke:#000000;" x="374.11875" xlink:href="#me9eb1a0a5e" y="94.291325"/>
     <use style="stroke:#000000;" x="375.8625" xlink:href="#me9eb1a0a5e" y="94.291325"/>
     <use style="stroke:#000000;" x="377.60625" xlink:href="#me9eb1a0a5e" y="94.291325"/>
     <use style="stroke:#000000;" x="379.35" xlink:href="#me9eb1a0a5e" y="94.357849"/>
     <use style="stroke:#000000;" x="381.09375" xlink:href="#me9eb1a0a5e" y="94.357849"/>
     <use style="stroke:#000000;" x="382.8375" xlink:href="#me9eb1a0a5e" y="94.357849"/>
     <use style="stroke:#000000;" x="384.58125" xlink:href="#me9eb1a0a5e" y="95.931866"/>
     <use style="stroke:#000000;" x="386.325" xlink:href="#me9eb1a0a5e" y="95.931866"/>
     <use style="stroke:#000000;" x="388.06875" xlink:href="#me9eb1a0a5e" y="96.068171"/>
     <use style="stroke:#000000;" x="389.8125" xlink:href="#me9eb1a0a5e" y="97.899225"/>
     <use style="stroke:#000000;" x="391.55625" xlink:href="#me9eb1a0a5e" y="98.418457"/>
     <use style="stroke:#000000;" x="393.3" xlink:href="#me9eb1a0a5e" y="98.556696"/>
     <use style="stroke:#000000;" x="395.04375" xlink:href="#me9eb1a0a5e" y="98.556696"/>
     <use style="stroke:#000000;" x="396.7875" xlink:href="#me9eb1a0a5e" y="99.335003"/>
     <use style="stroke:#000000;" x="398.53125" xlink:href="#me9eb1a0a5e" y="100.249511"/>
     <use style="stroke:#000000;" x="400.275" xlink:href="#me9eb1a0a5e" y="104.325656"/>
     <use style="stroke:#000000;" x="402.01875" xlink:href="#me9eb1a0a5e" y="104.325656"/>
     <use style="stroke:#000000;" x="403.7625" xlink:href="#me9eb1a0a5e" y="104.463895"/>
     <use style="stroke:#000000;" x="405.50625" xlink:href="#me9eb1a0a5e" y="104.463895"/>
     <use style="stroke:#000000;" x="407.25" xlink:href="#me9eb1a0a5e" y="107.730727"/>
     <use style="stroke:#000000;" x="408.99375" xlink:href="#me9eb1a0a5e" y="107.730727"/>
     <use style="stroke:#000000;" x="410.7375" xlink:href="#me9eb1a0a5e" y="112.530241"/>
     <use style="stroke:#000000;" x="412.48125" xlink:href="#me9eb1a0a5e" y="118.299202"/>
     <use style="stroke:#000000;" x="414.225" xlink:href="#me9eb1a0a5e" y="118.43744"/>
     <use style="stroke:#000000;" x="415.96875" xlink:href="#me9eb1a0a5e" y="122.564572"/>
     <use style="stroke:#000000;" x="417.7125" xlink:href="#me9eb1a0a5e" y="122.564572"/>
     <use style="stroke:#000000;" x="419.45625" xlink:href="#me9eb1a0a5e" y="122.924232"/>
    </g>
   </g>
   <g id="patch_3">
    <path d="M 58.5 128.16 
L 58.5 17.28 
" style="fill:none;stroke:#000000;stroke-linecap:square;stroke-linejoin:miter;stroke-width:0.8;"/>
   </g>
   <g id="patch_4">
    <path d="M 421.2 128.16 
L 421.2 17.28 
" style="fill:none;stroke:#000000;stroke-linecap:square;stroke-linejoin:miter;stroke-width:0.8;"/>
   </g>
   <g id="patch_5">
    <path d="M 58.5 128.16 
L 421.2 128.16 
" style="fill:none;stroke:#000000;stroke-linecap:square;stroke-linejoin:miter;stroke-width:0.8;"/>
   </g>
   <g id="patch_6">
    <path d="M 58.5 17.28 
L 421.2 17.28 
" style="fill:none;stroke:#000000;stroke-linecap:square;stroke-linejoin:miter;stroke-width:0.8;"/>
   </g>
  </g>
 </g>
</svg>
